<?xml version="1.0" encoding="utf-8"?>
<!-- Generator: Adobe Illustrator 27.2.0, SVG Export Plug-In . SVG Version: 6.00 Build 0)  -->
<svg version="1.1" xmlns="http://www.w3.org/2000/svg" xmlns:xlink="http://www.w3.org/1999/xlink" x="0px" y="0px"
	 viewBox="0 0 3018.3 2160" style="enable-background:new 0 0 3018.3 2160;" xml:space="preserve">
<style type="text/css">
	.st0{display:none;}
	.st1{display:inline;fill:#6E2405;}
	.st2{display:inline;fill:#5A3B00;}
	.st3{display:inline;fill:#507282;}
	.st4{display:inline;fill:#C9AC68;}
	.st5{display:inline;fill:#767769;}
	.st6{display:inline;fill:#C6CDC7;}
	.st7{display:inline;fill:#737144;}
	.st8{display:inline;fill:#B25538;}
	.st9{display:inline;fill:#FEC77C;}
	.st10{fill:#E0D9D9;stroke:#000000;stroke-width:2;stroke-miterlimit:10;}
	.st11{display:inline;}
	.st12{display:inline;fill:#FFFFFF;stroke:#5A3B00;stroke-miterlimit:10;}
	.st13{font-family:'DMSans-Regular';}
	.st14{font-size:73.0079px;}
	.st15{fill:#0A3542;}
	.st16{display:inline;fill:#FFFFFF;}
	.st17{font-size:15.7238px;}
</style>
<g id="Layer_3" class="st0">
	<path class="st1" d="M2419.7,1126.5c-9.4,2.3-119.7,105.7-119.7,115c0,9.4-54,103.3-63.4,126.8s-28.2,143.2-16.4,180.8
		c11.7,37.6,56.3,213.7,93.9,232.4s126.8,23.5,183.1,2.3c56.3-21.1,110.3-51.7,138.5-122.1c28.2-70.4,44.6-277,35.2-331
		s-86.9-166.7-86.9-166.7l-153.9-39.5l-19.9-5.1L2419.7,1126.5z"/>
	<path class="st2" d="M1912.5,1171.1c-21.1,0-122.1,16.4-136.2,18.8c-14.1,2.3-105.7,42.3-105.7,42.3s35.2,37.6,44.6,39.9
		c9.4,2.3,45,41.8,44.6,70.4c-0.4,28.6,4.7,75.1,2.3,93.9s-7,117.4-7,117.4l-54,63.4c0,0-16.4,0-30.5,9.4c-14.1,9.4-58.7,54-58.7,54
		l-16.4,30.5l-58.7,70.4c0,0-68.1,2.3-84.5,14.1c-16.4,11.7-25.8,42.3-21.1,63.4c4.7,21.1,56.3,49.3,77.5,58.7
		c21.1,9.4,225.4,16.4,225.4,16.4s91.6-11.7,209-11.7c117.4,0,187.8,0,230.1-14.1c42.3-14.1,70.4-44.6,75.1-61
		c4.7-16.4,7-56.3,7-72.8s16.4-14.1-21.1-68.1s-63.4-103.3-63.4-133.8c0-30.5,14.1-119.7,14.1-136.2c0-16.4,9.4-103.3,14.1-124.4
		s18.8-89.2,18.8-101s-54-70.4-79.8-68.1c-25.8,2.3-79.8,16.4-98.6,25.8c-18.8,9.4-129.1,18.8-129.1,18.8L1912.5,1171.1z"/>
	<path class="st3" d="M1619,1114.8c0,0-56.3-25.8-77.5-11.7c-21.1,14.1-42.3,35.2-56.3,42.3s-58.7,2.3-58.7,2.3l-11.7,28.2
		l-42.3,16.4c0,0-25.8,2.3-35.2,35.2c-9.4,32.9-39.9,140.9-37.6,169c1.2,14.1,4.5,29.6,10,47.7c5.5,18,13.1,38.6,22.8,62.7
		c19.4,48.1,23.5,108,68.1,122.1c44.6,14.1,47,0,63.4,21.1c16.4,21.1,25.8,37.6,63.4,42.3c37.6,4.7,68.1,18.8,84.5,0
		c16.4-18.8,4.7-54,37.6-63.4c32.9-9.4,54-7,75.1-28.2c21.1-21.1,16.4-28.2,30.5-47s16.4-37.6,16.4-63.4c0-25.8-7-65.7-7-84.5
		s7-91.6,9.4-105.7s-9.4-51.7-21.1-63.4c-11.7-11.7-44.6-68.1-44.6-68.1l-14.1-47l-42.3-4.7L1619,1114.8z"/>
	<path class="st4" d="M1212.9,1443.5c-5.2-7.2-49.3-28.2-49.3-28.2s-73-23.5-86.9-21.1c-13.9,2.3-79.8,0-79.8,0l-77.5,23.5
		l-89.2,9.4c0,0-75.1,30.5-84.5,39.9c-9.4,9.4-7,32.9-7,32.9s-63.4,49.3-65.7,61c-2.3,11.7,2.3,21.1-2.3,44.6
		c-4.7,23.5,0,63.4,2.3,72.8s-32.9,39.9-30.5,51.7s-2.3,21.1,23.5,32.9c25.8,11.7,89.2-2.3,89.2-2.3s47-14.1,51.7-4.7
		c4.7,9.4-23.5,63.4-23.5,70.4s-49.3,28.2,37.6,30.5c86.9,2.3,131.5-9.4,143.2-18.8c11.7-9.4-4.7-42.3,28.2-23.5s93.9,42.3,115,51.7
		c21.1,9.4,47,23.5,112.7,14.1c65.7-9.4,110.3-18.8,122.1-21.1c11.7-2.3,39.9-30.5,54-39.9c14.1-9.4,63.4-49.3,63.4-49.3
		s-7-21.1,2.3-37.6s7-63.4,7-63.4s-9.4-30.5-21.1-30.5s-56.3-11.7-56.3-11.7s-45.2-41.1-42.3-56.3s-16.4-63.4-16.4-63.4
		s-11.7-28.2-14.1-37.6c-2.3-9.4-49.3-28.2-49.3-28.2s-30.5,11.2-39.9,7C1219.9,1444,1212.9,1443.5,1212.9,1443.5z"/>
	<path class="st5" d="M722.2,1478.7l-49.3,58.7l-9.4,30.5l-2.3,63.4c0,0,2.3,39.9-7,39.9S517.9,1697,517.9,1697
		s-82.2-11.7-103.3-18.8s-70.4-86.9-44.6-122.1s61-98.6,75.1-129.1s0-96.3,21.1-129.1c21.1-32.9,23.5-47,68.1-77.5
		s58.7-68.1,84.5-82.2s61-58.7,72.8-58.7s75.1-14.1,75.1-14.1s14,4.6,18.8,2.3c4.8-2.3,44.6,2.3,44.6,2.3s63.4-11.7,70.4-14.1
		c7-2.3,18.8-25.8,39.9-32.9c21.1-7,49.3-14.1,77.5-21.1c28.2-7,65.7-25.8,65.7-25.8s44.6-18.8,54-23.5c9.4-4.7,49.3-14.1,49.3-14.1
		s38.6,8.6,42.3,14.1c3.6,5.5,9.4,68.1,16.4,82.2c7,14.1,63.4,47,63.4,47l7,28.2l11.7,16.4c0,0,16.4,7,21.1,18.8
		s-32.9-11.7,16.4-16.4c49.3-4.7,39.9,47,39.9,47c-7.2,12-68.1,30.5-68.1,30.5s-7,16.4-16.4,42.3c-9.4,25.8-21.1,84.5-21.1,84.5
		s9.4,35.2,4.7,49.3c-4.7,14.1-7,44.6-7,44.6l12.4,17.2l-5.3,29.8l-101-44.6l-84.5-9.4c0,0-32.9-30.5-54-32.9
		c-21.1-2.3-49.3-9.4-79.8,2.3s-56.3,9.4-68.1,11.7c-11.7,2.3-51.7,23.5-51.7,23.5s-1.6,8.9-37.6,21.1
		c-35.9,12.3-70.4,23.5-70.4,23.5L722.2,1478.7z"/>
	<path class="st6" d="M1945.4,814.3l-79.8,44.6c0,0-30.5-11.7-42.3-7c-11.7,4.7-42.3,9.4-58.7,16.4c-16.4,7-77.5,39.9-77.5,39.9
		s-14.1,65.7-16.4,75.1c-2.3,9.4-32.9,49.3-32.9,49.3l7,16.4c0,0,58.7,18.8,70.4,23.5s37.6,25.8,37.6,25.8l2.3,28.2
		c0,0,28.2,11.7,44.6,14.1c16.4,2.3,98.6,0,115,4.7c16.4,4.7,84.5,16.4,115,9.4s86.9-11.7,108-32.9c21.1-21.1,79.8-93.9,84.5-105.7
		c4.7-11.7,16.4-70.4,7-84.5c-9.4-14.1-32.9-63.4-51.7-65.7c-18.8-2.3-176.1-25.8-176.1-25.8L1945.4,814.3z"/>
	<path class="st7" d="M1931.3,405.7L1825.7,502l21.1,82.2c0,0-18.8,35.2-32.9,49.3c-14.1,14.1-49.1,36.5-58.7,35.2
		c-9.6-1.3-51.7,28.2-51.7,28.2l-56.3,68.1l-47,42.3c0,0-9.4,33.4-11.7,39.9s4.7,21.1,4.7,21.1s-21.1,75.1-21.1,89.2
		s-7,49.3,23.5,54c30.5,4.7,65.7,25.8,65.7,25.8s37.6-32.9,30.5-49.3s-4.7-79.8-4.7-79.8s23.4-28.2,42.3-30.5
		c18.8-2.4,47-16.4,54-16.4c7,0,21.1-4.7,30.5-7c9.4-2.3,32.9-2.3,39.9-2.3s63.4-7,63.4-7s47-21.1,39.9-30.5
		c-7-9.4-18.8-21.1-18.8-35.2c0-14.1,42.3-42.3,54-42.3s14.1-2.3,68.1,4.7c54,7,110.3-18.8,110.3-25.8c0-7,9.4-25.8,23.5-25.8
		c14.1,0,2.3,14.1,37.6,25.8c35.2,11.7,70.4,28.2,103.3,14.1c32.9-14.1,155-82.2,140.9-119.7s-18.8-140.9-37.6-159.7
		c-18.8-18.8-63.4-49.3-96.3-65.7c-32.9-16.4-47-42.3-105.7-39.9c-58.7,2.3-129.1,0-159.7,9.4c-30.5,9.4-129.1,47-129.1,47
		L1931.3,405.7z"/>
	<path class="st8" d="M1813.9,448l14.1,75.1l21.1,39.9c0,0-9.4,42.3-14.1,49.3c-4.7,7-35.2,42.3-49.3,51.7s-58.7,32.9-70.4,32.9
		s-75.1,72.8-75.1,72.8l-51.7,77.5l2.3,42.3l-18.8,68.1l18.8,25.8l2.3,18.8c0,0-4.7,28.2-11.7,37.6c-7,9.4-16.4,21.1-28.2,42.3
		c-11.7,21.1,2.3,30.5-25.8,37.6s-82.2,9.4-98.6,11.7c-16.4,2.3-16.4,2.3-16.4,2.3l-63.4-21.1c0,0-39.9-23.5-54-37.6
		c-14.1-14.1-56.3-58.7-56.3-68.1s0-63.4,0-63.4s16.4-35.2,25.8-35.2c9.4,0,72.8-23.5,72.8-23.5s2.3-68.1,0-82.2
		c-2.3-14.1-18.8-28.2-2.3-35.2c16.4-7,51.7-18.8,51.7-18.8c2.3-7-23.5-79.8-28.2-93.9s-14.1-56.3-16.4-70.4
		c-2.3-14.1,7-84.5,30.5-91.6c23.5-7,51.7,18.8,58.7,18.8s9.4-65.7,25.8-84.5c16.4-18.8,51.7-49.3,70.4-58.7s16.4-25.8,68.1-28.2
		c51.7-2.3,75.1,2.3,75.1,2.3L1813.9,448z"/>
	<path class="st9" d="M741,1042c0,0-82.2,30.5-89.2,35.2s-28.2,39.9-51.7,44.6c-23.5,4.7-96.3,39.9-112.7,32.9S424,1063.1,417,1042
		c-7-21.1,25.8-65.7,28.2-96.3c2.3-30.5,7-166.7,7-166.7s56.3-23.5,63.4-23.5c7,0-39.9-124.4-39.9-133.8s4.7-86.9,35.2-86.9
		s72.8,9.4,72.8,9.4l-103.3-108c0,0,56.3-49.3,79.8-49.3c23.5,0,47-4.7,54-4.7c7,0,35.2-4.7,35.2-4.7s7-101,23.5-108
		c16.4-7,37.6-32.9,112.7-21.1s166.7,68.1,166.7,68.1s25.8-63.4,65.7-68.1c39.9-4.7,82.2-23.5,112.7,9.4s72.8,68.1,77.5,77.5
		c4.7,9.4,23.5,63.4,30.5,93.9s30.5,108,35.2,119.7c4.7,11.7,37.6,42.3,44.6,58.7c7,16.4,30.5,82.2,35.2,89.2s14.1,32.9,14.1,32.9
		s-51.7,42.3-58.7,61c-7,18.8,9.4,61,9.4,61V880c0,0,4.7,16.4-25.8,25.8c-30.5,9.4-63.4,47-63.4,47s-109.5-6.1-122.1-9.4
		c-12.6-3.3-16.4,37.6-32.9,44.6c-16.4,7-32.9,14.1-75.1,23.5s-65.7,11.7-68.1,9.4s-54,7-82.2,11.7c-28.2,4.7-35.2,11.7-44.6,16.4
		S741,1042,741,1042z"/>
</g>
<g id="Layer_4">
	<path class="st10" d="M2516.2,337.2c-4.5-0.5-9.1-1-13.6-1.7c-1.9-0.3-4.6-0.7-5.2-2c-2.3-4.5-5.7-3.7-9.2-2.8
		c-9,2.2-17.6,1.7-26.4-1.7c-5.4-2.1-11.4-3.3-17,0.5c-12.4,8.3-25.6,14.3-40.4,18c-12.9,3.3-25.3,5.8-38.5,4.3
		c-10.5-1.1-16-5.1-19.3-14.9c-1.6-4.9-3.7-9.6-5.2-14.5c-2.1-6.9-3.5-14.1-1.8-21.2c0.9-3.9,3.3-7.5,4.9-11.2
		c7.4-16.5,17.8-30.4,34.2-39.2c3.7-2,6.9-2.8,10.9-1.5c2.3,0.8,5.3,1.2,7.5,0.5c6.3-2,12.8-4,18.5-7.3c6.4-3.8,12.5-3.9,19.1-1.8
		c1.4,0.4,2.7,1.1,4.1,1.7c0.8-1.3,1.6-2.1,1.8-3c0.9-4.5,1.5-9.1,2.3-13.6c1.6-9.4,3.3-10.6,12.7-9.2c0.4,0.1,0.9-0.3,1.8-0.7
		c3-5.2,6.1-10.6,9.9-17.3c-5-0.5-8.9-1.4-12.9-1.2c-4.8,0.2-8.3-1.1-9.8-5.9c-7.4,1.4-14.2,2.6-21,4c-4.7,1-8.9,0.3-13.5-1
		c-10-2.7-19.6-8-30.6-5c-2.5,0.7-4.5-0.5-5.2-3.2c-0.4-1.7-0.9-3.4-1.4-5.2c-14.1-2.5-27.4-8.1-41.9-6.5c-3.4,0.4-5.4-1.6-5.9-4.8
		c-0.7-5.4-4.4-6.9-8.8-6.4c-5.5,0.6-11.1,1.7-16.4,3.2c-1.6,0.4-3.7,2.7-3.7,4.2c-0.1,5.7-4,7.8-7.9,10.5
		c-7.2,4.9-14.4,9.9-21.3,15.2c-7.7,5.9-15,12.3-22.6,18.5c-5.9,4.9-11.8,9.5-15,17.1c-2.7,6.4-8.4,10-16.2,9
		c-3.3-0.4-6.7,0.2-10,0.3c-11,0.1-22,1.2-32.1-5c-1.7-1-3.9-1.2-5.9-1.7c-8.9-2.1-18-3.8-26.8-6.5c-6.2-1.9-11-1-15.5,3.3
		c-4.2,4.1-8.6,8-13.1,11.8c-6.5,5.5-13.5,10.4-19.5,16.3c-6.3,6.2-13.7,9.4-22.1,9.5c-10.4,0.1-19.6,3.4-28.7,7.8
		c-12.8,6.2-25.9,7.3-39.5,2.7c-4.1-1.4-8.3-2.7-12.8-0.1c0,4.1,0.8,8.3-0.2,12.1c-1.6,6.4-3.9,12.8-6.7,18.8
		c-2.6,5.6-6.9,9.9-12.8,12.7c-6.3,3-12.4,4.2-19.3,2.8c-3.9-0.8-8-1-11.7,1.9c-4.7,3.5-9.8,6.4-14.8,9.6c-7.3,4.7-14.9,9-21.8,14.3
		c-3.6,2.8-6.9,4-11.2,3.1c-3.5-0.7-7.1-1.2-10.6-1.1c-6.5,0.1-9.4-1.6-11.6-7.6c-1-2.6-2-5.2-3.1-7.8c-1.4-3.3-3.8-4.5-7.4-3.8
		c-3,0.6-6.1,1-9.2,1.1c-13.1,0.5-20.1-7.9-17.3-20.6c0.5-2.1,0.8-4.2,1.2-6.8c-7.8-0.6-13.4,2.6-18.6,6.1c-1.7,1.1-2.8,4.4-2.7,6.6
		c0.3,4.4-2,5.7-5.4,5.8c-6.4,0.1-12.9,0.3-19.2-0.4c-6.8-0.7-13-3.5-17.3-9.1c-3.7-4.7-7.7-5.4-12.7-2.5c-3.2,1.9-5.8,1.2-9.2-0.6
		c-7.7-4-15.4-4.7-22.6,2.4c-2.5,2.5-6.8,4.5-10.2,4.4c-15-0.4-29,3.1-42.9,8.1c-1,0.4-2.3,0.2-4.5,0.4c1.1-1.7,1.5-2.9,2.1-3.2
		c2.7-0.9,3.7-2.6,4.5-5.4c1.7-6,4.8-11.3,10.2-15c2.9-1.9,3.7-4.8,3.4-8.1c-0.1-1.5-0.5-3-0.7-4.6c-1.6-9.2,0.3-12.5,8.2-17.5
		c4.3-2.7,7-7,6.6-12.2c-0.4-5,1.7-8.2,5.4-11.2c6.3-5.1,6.1-8.1-0.7-12.1c-2.9-1.7-5-3.6-4.7-7.2c0.5-5.3,2.1-10,5.9-13.8
		c3.4-3.3,7.2-3,11.4-1.8c3.6,1,7.8-0.6,8.2-3.8c0.7-5.6,2.7-11.9-1.4-17.1c-3.6-4.6-3.4-9.2-0.4-13.5c2.5-3.7,2.7-7,0.6-10.7
		c-3.6-6.5-3.5-13.1-1-20.1c1.2-3.5,1.4-7.5,1.5-11.4c0.1-3.1-0.7-6.2-4-7.6c-6.5,1.5-13.3,0.3-19.8,3c-2.2,0.9-6.1-0.7-8.6-2.2
		c-6.2-3.6-12.1-7.7-17.9-11.8c-5.4-3.9-7.8-4-12.9,0.4c-2.4,2.1-4.4,4.5-7.8,1.4c-0.6-0.6-2-0.7-2.9-0.4c-7.4,1.9-15,3.6-22.2,6.1
		c-5.1,1.8-7.1,5.3-5.9,10.3c1.4,5.7,0.1,10.7-2,15.7c-2.5,5.9-5.5,11.6-7.6,17.6c-2.3,6.7-8,10.6-12,15.8
		c-11.2,14.6-26.4,22.3-44,25.7c-6.5,1.3-11.4,4.4-14.1,10.6c-7.1,15.4-19.2,25.5-34.2,32.7c-4.4,2.2-7.7,2.3-11.6-1.5
		c-4.6-4.3-10.4-6.3-13.6,2.7c-3.2,8.9-8.2,16.4-14.8,23.1c-1.1,1.1-1.2,3.3-1.8,5.3c1.9,0.2,2.7,0.6,3.4,0.4
		c5.3-1.7,9-0.1,11.4,4.9c0.4,0.9,1.3,1.6,2,2.3c12.7,14.6,6,41-7.6,48.8c-4.8,2.8-9.7,5.3-14.5,8.1c-8.7,5.2-18.9,9.3-24.5,18.1
		c-8.4,13.2-23.3,14.6-35.4,21.2c-0.6,0.3-1.5,0.2-2.3,0.2c-12.7-0.5-25.6,0.8-38-3.9c-1.2-0.5-2.5-0.6-3.7-0.4
		c-4.5,0.7-9,1.5-14.1,2.4c1.2-3.5,0.1-5.6-3.6-5.5c-2.6,0-5.1,0.2-7.7,0.6c-10.5,1.4-16.5,8.6-15.2,19c0.6,4.7-0.2,8.6-3.6,12
		c-1.4,1.4-2.4,3.3-3.9,4.8c-3,3-3.6,5.8-0.8,9.5c2.1,2.8,4.1,6.1,2.8,10c-2,6.1-0.3,11.6,3,16.8c1.4,2.3,2.7,4.7,3.6,7.2
		c1.9,4.9,5,8.5,9.6,11.1c13.3,7.4,22.7,18.1,27.1,32.9c0.5,1.8,2.9,3.9,4.8,4.3c7.5,1.5,12.7,6.6,18.2,11.1
		c5.5,4.5,5.5,7.5,0.9,12.8c-0.8,0.9-1.5,2-2.6,3.5c1.5,2.1,2.8,4.3,4.5,6.1c4.3,4.7,7,10.1,8.3,16.3c0.7,3.6,1.3,6.9,6,7.7
		c1.6,0.3,3,3.2,3.9,5.1c0.7,1.8,0.5,4,0.7,5.8c8.8,4.2,8.9,4.2,7.5,13.8c-1.1,7.3,1.4,13.7,4.8,19.9c1.5,2.8,3.2,5.2,6.8,5.6
		c3.9,0.4,5.3,2.9,5,6.4c-0.9,10.8-4.2,20.3-13.9,26.8c-3.9,2.6-7.7,6.2-10.2,10.2c-3,4.9-6.9,7.3-12,8.7
		c-7.7,2.1-15.6,3.6-22.9,6.6c-10.3,4.2-18.1,0.7-24.8-6.5c-2.9-3.1-5.8-3.8-9.6-3.5c-5.4,0.5-10.8,1.3-16.1,1.1
		c-4.6-0.1-7.4,1.4-8.9,5.6c-2.4,6.8-7,11.9-12.5,16.3c-2.8,2.2-5.6,4.5-8.5,6.6c-4.4,3.2-6.3,7.3-5.2,12.8c0.1,0.7,0.3,1.5,0.4,2.2
		c1.1,8.1,0.3,15.3-7,19.6c-4.4,2.5-6.1,6.9-6.8,11.6c-1.2,7.9-2.1,15.8-3.2,23.7c-0.7,5-0.1,9.6,2.4,14.1c2.1,3.9,2.8,8.1-0.5,12.2
		c-1.5,1.8-1.8,4.7-2.3,7.1c-2.4,11.6-7,21.4-17.3,28.8c-11.3,8.1-24.2,10.8-36.9,14.9c-1.4,0.5-4.2,0.1-4.8-0.9
		c-0.9-1.5-0.5-3.8-0.3-5.7c0.1-1.4,2-2.8,2.3-3.8c0.7-2.3,2.2-4.3,4-5.9c7.5-6.5,12.3-14,13.9-23.3c0.8-4.3-0.4-7.6-4.1-10
		c-12.6-8.1-14.8-20.8-14.6-34.3c0.1-3.2,1.8-6.4,2.6-9.6c1.6-6.9-1.2-9.8-7.7-7c-5.5,2.4-10.5,6.2-15.5,9.8
		c-2.4,1.8-4.5,2.1-7.5,2.2c-7.3,0.2-14.2-3.5-21.7-1.7c-4.5,1.1-7-1.7-5.7-6.3c0.6-2.2,2.4-4.5,4.3-5.9c4.1-3.1,8.6-5.6,12.8-8.5
		c7-4.7,14.4-18.9,13.3-27.3c-1.5-12,3-22.1,8.6-32c4.6-8.2,10.7-14.9,18.6-20.2c8.5-5.6,16.2-12.5,26.3-15.7
		c4.5-1.5,7.6-4.9,9.6-9.4c1.8-4.2,4.7-7.9,6.7-12c1.9-3.8,3.5-7.8,5-11.8c0.8-2.1,1.1-4.4,1.8-6.6c3.1-9.5,6.2-19,6-29.3
		c-0.1-2.8,1.6-5.8,2.6-8.6c1.1-2.9,2.8-5.6,3.4-8.5c0.9-4.8-1.1-6.8-5.9-6.3c-2.5,0.3-5,1.2-7.5,1.7c-3.9,0.8-6.6-0.2-8.8-4.1
		c-4.5-7.7-7.5-15.6-7.3-24.7c0.2-7.3-3.1-13.3-7.9-18.3c-5,0-8.7,1.4-11.8,5.2c-3.5,4.3-8.1,7-13.6,8.3c-1.7,0.4-3.4,1.2-5,2
		c-7,3.4-7.8,3.5-13-2.6c-4.6-5.4-10.1-7.6-17-7c-5.1,0.4-10.3,0-15.4,0.9c-10.8,1.9-21.5-1.1-32.2-0.7c-0.7,0-1.7,0-2.2-0.5
		c-4-3.3-8.7-2.4-13.3-2.6c-7.2-0.3-10.9-6.2-8-12.8c4-9.3,9.4-17.7,16.5-24.9c2.3-2.3,3.5-5.6,3.3-8.9c-0.1-2.1,0.4-4.2,0.3-6.3
		c-0.1-6.5-0.5-12.4-7.4-16.4c-4.9-2.8-9.2-6.8-11.6-12.8c-3.2-7.9-2.5-15.4-1.5-23.4c1.3-10.4,2.4-20.9,2.7-31.4
		c0.1-5.2-0.8-11-3.1-15.7c-5.6-11.5-5.3-24-6.9-36.1c-1.8-14-1.8-28.2-2.5-42.3c-0.2-4.7-1.8-8.5-6-10.9c-5.2-3.1-7.7-7.9-9.2-13.6
		c-2.1-8.1-2.9-16.2-1.2-24.4c0.6-2.8,1.7-6.1-1.4-7.7c-4.4-2.2-3.6-5.7-3.2-9.2c1.2-9.7,0.1-19.4-5-27.6
		c-5.6-8.9-7.6-18.3-8.5-28.4c-0.6-6.6-2.2-13.1-3.5-19.6c-0.3-1.4-7.2-28.3-12-37.2c-3.5-6.5-8.6-10.6-15.9-12.2
		c-6.3-1.4-12.1-4.1-16.1-9.8c-1.1-1.5-3.4-3-5.1-2.9c-3.7,0-5.6-2-7.6-4.3c-4.4-5-9.7-8-16.8-7.8c-11.5,0.4-23,0.3-34.4,0.5
		c-1.5,0-3,0.6-4.5,1.1c-3.5,1.1-5.4-0.1-7.6-3.1c-6.4-9-13.4-17.5-20.1-26.2c-3.7-4.8-8.5-6-14.4-5c-4.8,0.8-10,1.9-14.5,0.6
		c-8.7-2.3-16.8-0.5-25.1,0.9c-2.8,0.5-5.6,0.6-8.4,1.1c-2.5,0.5-5.2,0.9-7.2,2.2c-3.3,2-6.5,2.8-10.3,2.2c-6.4-1-11.7,1.1-16,5.7
		c-2.6,2.8-5.4,5.6-7.5,8.8c-4.5,7.2-8.2,14.8-12.9,21.8c-2.9,4.3-2.8,8.3-1.9,14.3c4.1-2.4,7.2-4.5,10.5-6.1
		c2.4-1.1,5.4-2.8,7.6-2.1c5.9,1.6,11.8,3.8,17.1,6.8c6.7,3.9,13.3,7.8,21.2,8.6c4.6,0.5,8.2,2.7,10.4,7c1.8,3.5,4.9,4.6,8.8,5.3
		c6.3,1.1,12.6,2.7,18.7,4.5c2.3,0.7,5,2.3,6.1,4.3c4.6,8.9,9.2,17.9,5.9,28.5c-1.6,5.3-1.8,10.3-0.3,15.8
		c2.9,10.8-4.5,20.2-15.8,20.6c-7.4,0.2-14.8,0.1-22.2-0.3c-9-0.4-17.9-1.3-26.9-1.8c-1.6-0.1-3.2,0.5-5.2,0.9
		c2.7,10.5,6.7,19.4,13.9,26.9c9.3,9.6,21,14.4,33.6,17.8c22.3,6,40.5,17.4,51,38.7c3.5,7.1,8.6,9.7,16,10.5
		c14.8,1.6,21.4,12.8,16,26.3c-2.5,6.2-2.2,11.5,2.3,17.1c5.3,6.5,8.5,15,7.9,22.9c-0.8,10.5-1.7,21.6-8.2,30.9
		c-3.5,5.1-6.5,10.6-10.6,15.1c-4.9,5.3-9.8,11.9-18.9,8.3c-0.6-0.3-1.5-0.1-2.3,0.1c-13.4,3.4-26.9,5.3-40.7,6.4
		c-4.9,0.4-9.7,1.7-14.2,3.8c-10.1,4.7-20.2,5.3-30.7,2.1c-3.9-1.2-7.5-0.9-10.9,1.8c-1.1,0.9-3.2,0.6-4.8,0.9
		c-13.3,2-25.3-6.5-38.6-4.6c-4-3.8-7.5-1.5-10.8,1c-3.3,2.4-6.1,2.1-9.1-0.4c-1.6-1.3-3.1-2.7-4.9-3.8c-3.5-2.1-7.4-6-10.5-5.5
		c-5.1,0.8-11.2-0.4-15.6,3.9c-0.8,0.8-2.2,1-4.3,2c-0.3-2.9-0.7-5-0.6-7.2c0-4.1,0.9-8.3,0.3-12.2c-2.1-12.4-4.8-24.8-13.2-34.9
		c-1.3-1.6-2.7-3.3-3.2-5.2c-2.5-8.4-9.5-10.7-16.9-13.2c-1.6,1.9-2.9,3.8-4.5,5.5c-6.8,7.1-13.5,14.3-24.6,13.2
		c-4.9-0.5-9.8-1.6-14.7-2.1c-1-0.1-2-0.3-3-0.5c-5.1-1.5-11.1,0.6-15.5-0.7c-8.6-2.5-17.8-5.6-21.3-15.7c-1.9-5.3-6-8.3-11.5-9
		c-5.2-0.7-9-3.4-11.9-7.7c-2.8-4.2-6.8-6.7-11.3-8.9c-11.5-5.8-22-13.1-29.6-23.9c-1.6-2.2-3.8-4.1-6.1-5.7
		c-9.8-6.5-20.7-8.8-32.3-7.2c-10.3,1.4-19.9,0.5-29.1-4.7c-8.2-4.7-16.7-9-24.8-14c-7.4-4.6-15.1-6.1-23.6-4.7
		c-18.4,2.9-34.6-2.2-48.3-14.6c-3.6-3.2-7.1-3.7-12.5-1.6c-1.9,0.7-3.9,1-5.9,0.7c-2.2-0.3-6.2,1.1-8.9-0.1
		c-7.1-2.9-14.4-5.6-20.9-9.6c-6.3-3.8-12.6-5.7-19.7-4.4c-4.8,0.8-9.5,0.3-14.2,0.2c-7.9-0.2-13.2-3.2-17.2-9.5
		c-1.6-2.6-2.9-5.3-4.4-8c-1.1-2-1.8-4.7-3.6-5.7c-4.3-2.3-6.3-5.8-7.7-10.1c-1.5-4.7-4.9-7-9.8-7.3c-7.4-0.4-14.8-0.9-22.3-1.3
		c-1.8-0.1-3.6,0.4-5.3,0.7c-5.6,1-11.1,1.9-16.6,3.1c-20.1,4.3-37.6,12.4-46.4,32.7c-0.7,1.6-1.6,3.2-2.3,4.9
		c-1.7,3.9-4.4,6-8.9,6.2c-3,0.1-6.4-0.1-7.7,4.1c0.5,0.9,1,2.1,1.7,3.1c3.2,4.4,8.1,3.9,12.6,4.3c9.8,0.8,11.4,2,13.6,11.2
		c1.5,6.3,2.8,7,9,6.1c5-0.7,10.3-1.5,15.2-0.9c5.9,0.7,11.4,3,14,9.3c1.9,4.5,5.7,6,10.1,5.2c9.3-1.8,17.1,1.5,24.9,5.7
		c8.7,4.7,16.5,11.4,27,12.4c0.7,0.1,1.5,0.5,2.1,0.9c10.2,5.9,17.6,13.7,19.2,26c1,8.1,4.1,15.9,2.6,24.3c-0.7,4,1.8,7.3,5.3,9.6
		c4.5,3,9.2,4.2,14.6,3.6c17.1-2,32.9-7.7,47.8-16c3.6-2,7.3-3.9,11.1-5.3c6.8-2.5,9.9-1.2,10.9,6.1c1.6,11.7,2.2,23.5,3.2,35.2
		c0.5,5.8-0.6,12.4,1.7,17.4c6,13.6,13.6,26.5,16.9,41.1c6.6,7.7,5.7,17.2,6.4,26.4c0.3,3.6,0.2,7.4,1.6,10.5
		c5.4,12.4,4.1,24.4,0,36.8c-3.7,11.2-6.5,22.7-9,34.3c-0.8,3.6-0.5,7.2-3.9,9.4c-3,1.9-6.3,4.5-9.5,4.4c-9.8-0.2-18.8,2.6-27.7,5.8
		c-3.2,1.1-5.4,0.5-7.1-2.3c-3.2-5-6.3-10.1-9.7-15c-5-7.1-9.5-14.7-18.6-17.4c-3.8-1.1-6-3.6-7.3-7.3c-2-5.3-3.5-10.6-3.1-16.5
		c0.4-5.6,0.2-11.3,0.1-16.9c-0.1-4.7-1.2-6.1-5.9-6c-4.8,0.1-9.6,1-14.5,1.4c-3.5,0.3-7.4,1.5-10.5,0.6c-10.1-3-20.2-5.9-28.9-12.3
		c-5.9-4.4-12.6-6.8-20.2-6c-2.9,0.3-4.8-0.9-7.2-3c-3.8-3.4-8.9-5.4-14.3-3.9c-9.7,2.6-19.4,5.2-27.5,11.5c-4.4,3.4-8.6,5.9-14.7,3
		c-4.6-2.1-8.1,1.9-11.2,5c-2.4,2.5-1.4,5.5,0,7.9c1.1,1.8,3.3,3,5.1,4.4c3.7,2.8,8.2,4.8,10.9,8.3c9.8,12.4,21.3,22.2,37.4,25.9
		c3.2,0.8,6.4,1.8,9.5,3c1.9,0.7,4.3,1.2,6,2.4c5.2,3.8,10.1,7.8,13.3,13.6c2.4,4.2,6,7.7,8.6,11.8c4.7,7.6,10.4,14.5,12.7,23.5
		c2.1,8.2,7.2,14.9,14.6,19.1c4.9,2.7,10.5,4,15.6,6.2c6.5,2.8,13.5,5.1,16.6,12.5c3.8,8.9,7.9,17.6,12.4,26.2
		c1.8,3.5,2.2,6.4,0.3,9.8c-2.1,3.8-3.8,7.8-6,11.5c-2.3,3.7-3.8,7.2-0.8,11.3c0.7,1,1.5,2.3,1.5,3.5c0.2,4.2,2.9,9.2-1.3,12.4
		c-7.9,6-16.1,11.9-24.7,16.9c-7.5,4.3-15.8,7.4-23.9,10.6c-3.3,1.3-7,1.9-10.5,1.8c-4.8-0.1-9.7-1.1-14.5-1.6
		c-9.2-0.9-17.6-5.1-27.1-4.8c-7.8,0.2-14.8,2.5-21,6.6c-3.1,2.1-6.1,4.3-9.6,5.9c-6.6,3.1-7.1,4.1-6.1,11.3c0.1,1,0.3,2,0.5,3.1
		c1.3,12.8-6.1,19.1-18.3,15.2c-3.1-1-5.5-0.6-7.8,1.4c-1.7,1.5-3.5,3-5.1,4.7c-7.2,7.8-17,7.1-26.3,8.1c-6.5-4.2-14-2.5-21-3.4
		c-3.1-0.4-6.4,0.5-9.4,0.7c-0.5,4.4,0.2,8.6-1.5,11.3c-2.8,4.3-1.5,6.9,1.3,10.1c1.9,2.3,4.2,5.2,4.4,7.9
		c0.8,10.9,6.2,20.1,10.4,29.6c3,6.8,7.1,13.1,11.2,19.3c3.6,5.5,8.2,10.5,11.9,16c3.3,4.9,7.8,7.8,12.9,10.4c3.1,1.6,5.9,4,8.2,6.6
		c2.7,3,4.8,6.7,7,10.1c3.4,5.1,5.3,10.7,3.7,16.8c-1.9,7.4-3.6,15-6.5,22c-1.8,4.3-5.1,8.6-8.9,11.2c-6.4,4.4-10.7,10.3-14.9,16.4
		c-2.6,3.7-1.8,6.3,1.6,9.4c6,5.5,12.3,10.9,17.8,16.8c4.7,5,9.3,10.4,12.5,16.4c4.2,8,6.3,16.9,5.5,26.1c-0.8,8.5-2.3,17.1-8,23.7
		c-6.1,7.2-12.6,14.2-21.3,18.7c-5.2,2.8-8.6,7.2-9.9,13.1c-0.7,3-1,6.2-2.4,8.9c-3.1,6.1-5.4,13.5-10.4,17.6
		c-6.8,5.6-10.7,12-13.2,20.1c-1.9,6.4-1.9,6.1,3.4,9.7c8.7,5.9,17,12.3,22.2,21.8c2.3,4.3,4.4,8.7,6.6,13c1,1.9,2.4,3.6,4.4,6.6
		c1.1-1.9,1.6-2.8,2.2-3.6c8.9-12.6,22-18.5,36-23.4c6.5-2.2,13.1-5.2,18.3-9.5c7.6-6.1,14.2-13.6,17.1-23.3
		c2.7-9.2,8.6-15.6,16.4-20.4c5.6-3.5,11.4-7,17.6-9.4c2.9-1.1,7.7-0.8,10.1,1c4.2,3.1,8.4,7.3,10.5,12c3.1,6.8,8.1,8.4,14.2,7.7
		c4.4-0.5,9.8,1.2,13-3.1c5.6-7.3,11.4-14.8,10.6-24.8c-0.6-7.9,2.8-13.9,9.4-17c10-4.6,15.6-12.9,21-21.7
		c5.3-8.5,9.9-17.4,15.5-25.8c7.4-11.2,13.2-12.2,23.8-3.9c6.2,4.9,12.6,6,20.1,4.6c7.1-1.4,9.2-0.3,12.8,5.5
		c5.8,9.2,13.9,11.2,23.4,6.1c5.5-2.9,11-7.2,17.9-3.2c0.8,0.5,2.6,0,3.7-0.6c9.5-5.1,18.9-10.4,28.3-15.6
		c5.1-2.8,10.2-5.7,15.5-8.1c4-1.8,8.2-2.9,12.4-4.2c1.6-0.5,3.3-0.7,6-1.2c0.6,4.1,1,7.5,1.6,11c1.1,6.6,1.8,13.2,3.4,19.6
		c1.5,6.5,3.9,12.7,5.7,19.2c0.5,1.9,0.6,4,0.2,5.9c-1.4,6.6-2.9,13.1-4.7,19.6c-0.7,2.4-1.9,4.7-3.1,7c-2.7,5.5-6.4,10.7-8.2,16.4
		c-2.4,7.6-7.2,12.2-14,15.4c-5.2,2.5-9.9,1.8-14-2.4c-2.3-2.4-4.2-5.1-6.3-7.5c-3.8,0.5-7.4,0.7-10.9,1.4
		c-8.1,1.5-14.6-0.1-18.1-8.7c-10,1.7-20.2,0.1-29.6,5c0.5,2.4,0.6,4.2,1.4,5.8c3,6.3,4.4,13,6.4,19.6c1.9,6.3,0.6,10.8-2.3,15.9
		c-2.4,4.3-3.5,8.8-2.9,14c0.6,5.3,0.2,10.8-0.9,16c-0.6,2.9-2.9,6.1-5.3,8c-7.7,6-15.8,10.8-26.1,12.1c-7.8,1-14.1,5-15.8,14.2
		c-1,5.4-3.7,10.6-6.1,15.7c-1,2.2-2.9,4.3-4.9,5.7c-7.4,5.1-14.8,10.2-22.5,14.7c-3.1,1.8-6.7,2.8-10.3,3c-5.7,0.2-10.1,2.6-14.4,6
		c-4.4,3.5-8.7,7.8-13.8,9.7c-7.9,2.9-12.6,8.2-16.8,14.9c-6,9.6-13.8,17.2-25.3,20c-2.9,0.7-5.6,2.5-8.3,3.9
		c-5.4,3-10.3,7.2-16.1,8.9c-8,2.5-13.7,7.9-19.7,12.9c-1.5,1.3-2.6,3.9-2.4,5.8c0.7,11,5.5,16.9,15.9,20c5.1,1.6,9.3,4.1,11.3,9.5
		c0.7,1.8,2,3.6,3.5,4.9c3.8,3.4,4,7.1,2.6,11.8c-2.1,7.1-4,14.4-5.1,21.7c-1.2,8,1.9,10.4,9.7,8.8c1-0.2,1.9-0.8,2.9-1
		c5.8-1.1,11.6-2.4,17.4-2.9c5.6-0.6,7.8,1.5,9.5,6.7c0.9,2.9,2,5.9,3.8,8.2c3.5,4.5,3.9,8.8,2.5,14.3c-2.4,9.1-2,18.6,2.7,26.9
		c4.2,7.6,1.8,14.5-0.2,21.5c-1.1,3.7-4.4,4.4-7.3,1.9c-1.5-1.3-2.4-3.2-4.3-5.7c-3.3,4.2-5.7,7.1-8.3,10.5
		c-4.1-4.3-4.2-9.1-5.1-13.4c-1.6-8-5.5-14.9-10.5-21.1c-2-2.5-4.1-4.6-8.4-3.7c0.2,3,0.3,6,0.5,9c0.4,6.1,1.2,12.3,1,18.4
		c-0.2,9.2-4.6,15.6-13.9,17.9c-2.2,0.6-4.5,1-6.8,1.4c-5.9,1.1-6.2,1.1-6.6,7.3c-0.8,11.7-1.3,23.5-1.7,35.3
		c-0.1,2.9-1,4.9-3.6,6.1c-2.3,1.1-4.6,2.3-6.8,3.7c-7.2,4.5-11.7,10.8-12.5,19.3c-1.1,11.4-6.5,20.3-15.4,27.3
		c-4.4,3.5-8.7,7.3-12.8,11.2c-1.8,1.7-3.5,3.9-4.5,6.1c-1.9,4.4,0.3,7.5,5,6.4c3.9-0.9,7.7-2.7,11.1-4.8c3.7-2.2,6.5-6.1,10.4-7.8
		c7.6-3.4,14.2-8.1,20.7-13.1c2-1.6,5.2-2.7,7.7-2.4c6.2,0.7,11.8,3,15.5,9c-3.5,3.6-6.8,7.1-10.3,10.4c-6.3,5.7-9,12.3-5.9,20.7
		c3,8-0.2,14-6.6,18.7c-9.3,6.8-18.6,13.7-28.1,20.2c-6.4,4.4-10.5,10-9.9,17.9c0.5,6.9-1.2,13.1-3.7,19.4c-2.1,5.3-2.9,11,0.7,16.3
		c0.5,0.7,0.4,1.8,0.7,3.4c-4.3,1.6-8.3,3.2-12.3,4.7c-6.3,2.3-7.4,2.9-5.8,9.4c1.5,6.4,4.3,12.5,7.4,18.4c4,7.5,6.8,15.2,4.8,23.6
		c-1.4,6,0.2,10.4,3.7,14.9c4.5,5.9,8.9,12,12.7,18.3c4.5,7.5,8.5,15.2,12.4,23c3.1,6.1,7.4,10.4,14.3,11.7c3.7,0.7,5.9,2.8,6.9,6.4
		c1.3,4.4,2.5,8.9,3.7,13.4c0.8,3,1.5,6,2.5,8.9c1.5,4.3,4,7.1,9.2,6.2c3.7-0.7,6,1.2,8,4.5c5,8.2,7.5,8.7,15.3,3.2
		c6-4.3,12.6-6.3,19.6-4.5c6.7,1.8,12,0.2,17.1-3.8c2.2-1.7,5.1-2.6,7.2-4.4c7-5.8,14.5-8.6,23.5-6c0.4,0.1,0.9-0.4,1.8-0.8
		c2.6-7.6,2.3-17.5,12.6-20.8c-1.1-8-2.2-15.6-3.3-23.2c-0.1-1-0.9-2-1.3-2.9c-1.7-4.5-3.6-9-6.5-12.9c-9.9-13.5-9.5-28.1,2.7-38.4
		c11.7-9.9,16.4-22,16.2-37.2c-0.1-10.3,2.2-20.7,3.4-31.2c6-1.5,11.4-3.5,16.9-4.1c6.4-0.7,9.5-4.1,11.2-9.8
		c0.4-1.2,0.9-2.4,1.3-3.6c1.3-4.9,4.3-8.5,8-11.9c9.1-8.3,18-16.7,26.4-25.7c5-5.4,10.3-9.9,17.3-12.4c1.4-0.5,2.7-1.6,4.2-2
		c5.4-1.5,10.7-3.7,16.2-4.2c8.4-0.8,14,5.8,12.9,14.1c-0.4,3-1.4,6-2.6,8.8c-5,11.4-12.6,20.4-24.3,25.6c-5.8,2.6-6.8,5.3-6.5,11.3
		c0.2,3.7,0.1,7.4-0.3,11c-1.1,9.2,0.4,17.3,7.7,23.7c1.5,1.3,2.5,3,4.2,5.1c-2,1.9-3.5,3.7-5.3,4.9c-12.3,7.9-24.5,16.1-39.1,19.3
		c-6.7,1.5-11.6,5.2-16,10.1c-3.5,3.9-3.3,5.7-0.9,10.3c3.9,7.5,7.8,15,11.1,22.8c0.9,2.2,0,5.4-0.8,7.9c-0.6,1.8-2.3,3.4-3.8,4.8
		c-4.2,3.7-4.5,8.1-3.3,13.3c3.8,15.9,7.1,31.9,11.1,47.8c1.2,4.9,3.3,9.5,5.9,13.8c2.9,4.7,3.2,8.6-0.1,13.2
		c-3.1,4.4-3.9,9.2-0.9,14.4c2.4,4.2,3.4,8.9,2.5,14.1c-1.7,9.6-8,15.5-16,19.4c-8.9,4.4-18.4,7.7-27.7,11.3c-4.7,1.8-5.4,3.1-4,8.1
		c1.8,6.6,6.2,11.7,11.3,15.1c6.6,4.4,13.8,9,22.9,4.8c3.8-1.7,8.5-2.2,12.8-2.3c5.7-0.1,8.2-3,9.8-7.9c3.6-10.9,8.5-13.1,18.9-8.6
		c4.7-3.3,7.9-7.8,10.1-13.2c1.8-4.2,4-8.3,6.4-12.2c2.8-4.5,4.6-4.5,8.4-0.8c0.7,0.7,1.3,1.6,2,2.3c7.5,8,16.3,11.6,27,7.2
		c3.9-1.6,6.3-0.3,8.6,2.6c1.9,2.4,4.2,4.6,5.8,7.2c3.1,5,8,7.1,13.2,8.6c9,2.6,9,2.5,15.4-4.7c3.6-4,7-8.2,10.9-11.9
		c5.3-4.9,11.9-6.8,19-6.3c3.2-8,2-15.4-0.2-22.5c-2.2-6.9-0.8-12.8,1.9-19.3c2.5-6.1,3.6-12.7,4.9-19.2c0.7-3.4-1.2-5.6-4.5-7.2
		c-4.6-2.2-8.8-5.1-13.3-7.5c-3.4-1.8-6.7-3.7-10.3-4.9c-6-2-6.1-1.7-6.2-8.1c0-1.5-0.3-3.1-0.3-4.6c0-9.7,1.5-19,8.2-26.6
		c2-2.3,3.8-4.8,6-7c1.2-1.2,2.9-2.3,4.5-2.4c9.9-0.9,19.9-2.5,29.8-1.9c9.7,0.5,19.3,2.7,29.1,1.6c3.9-0.4,6.4,1.3,7.8,4.9
		c0.5,1.3,1,2.6,1.7,3.8c7.5,13.9,15.3,26.8,32.5,31c9.3,2.3,14.2,10.5,14.9,20.4c0.6,8.4,1.2,16.9,1.8,25.3
		c0.1,1.2,0.4,2.7,1.1,3.6c5.4,6.5,11.2,12.7,16.5,19.2c4.7,5.7,9.4,11.5,13.2,17.8c1.8,3,2.3,7.4,2,11.1c-0.5,6.9-1.9,13.7-3,20.6
		c-2.2,14.4-4.5,28.9-6.7,43.3c-0.2,1-0.1,2.1-0.2,3.1c-0.8,9.1,4.8,12.6,13.3,13.3c3,0.2,6.6-1.4,9.2-3.3c4.9-3.6,9.3-7.9,13.9-12
		c5.8-5.2,9.7-12.8,18.8-14.9c4.8,4.3,7.4,9.2,5.4,16.1c-0.5,1.9-0.2,4-0.4,6c-0.3,3.3,0.2,7-1.1,9.8c-3.4,6.9,0.5,10.9,4.6,15.6
		c5.8-4.5,11.4-8.6,16.7-13c3.4-2.8,6.4-5.7,11.6-4.2c1.7,0.5,3.9-0.9,5.8-1.6c4.8-1.7,9.8-3.2,14.4-5.4c6.6-3.2,12-1.6,16.6,3.5
		c4.7,5.4,10.5,7.3,17.6,7.7c7.7,0.4,15.3,2.4,20.7,8.7c3.6,4.2,7.6,7.7,13.5,7.9c0.5,1.5,0.8,2.7,1.2,3.9c3,10.2,6.9,20,16.4,26.1
		c2.5,1.6,5.6,3.1,8.3,3c7.4-0.2,12.3,3.3,15.6,9.3c5.1,9.3,12.4,13.8,23.2,13.1c9.3-0.7,17.4,1.8,21.3,11.6
		c0.7,1.6,1.6,3.3,2.9,4.6c1.5,1.6,3.4,2.9,5.3,4c3.9,2.4,8.1,4.3,11.6,7.1c3.1,2.5,5.8,3,8.9,0.7c1.8-1.4,3.8-2.7,5.3-4.4
		c4.2-4.5,7.8-9.5,12.2-13.8c3.2-3.1,7-6.1,11-7.9c3.8-1.7,6,0.1,6.1,4.2c0.1,4.3-0.6,8.6-1,12.9c-0.2,1.9-0.5,3.9-0.8,5.9
		c9.6,3.3,18.7,3.5,27.9,2.4c2.1-0.3,4.4-1.5,6-3c5-4.8,9.8-9.8,14.3-15c1.9-2.2,4.1-2.7,6-1.2c4.4,3.7,9.6,7,9.7,14
		c0.1,3.2,1.2,6.4,2,10.1c2.4-0.4,4.2-0.3,5.7-1c9.4-4.1,18.7-8.4,28-12.7c7.8-3.6,15.9-6,23.3-0.3c5.5,4.3,11.1,4.4,17.3,4.2
		c11.5-0.4,21.9-5.1,32.6-8.5c4.6-1.5,9.8-2.2,13.7-4.8c7.7-5,16.1-5.8,24.9-7c5.7-0.8,11.5-1.6,17.2-2.3c4.6-0.6,9.3-1.8,13.8,1.3
		c1.4,1,4,0.6,6,0.4c6.6-0.7,13.4-1.1,19.8-2.7c7.5-1.9,14.7-1.3,22.1,0c2,0.4,4.1,0.9,6.1,0.7c1.4-0.1,2.8-1.4,4.9-2.5
		c-5-3.9-8.3-7.8-7.6-13.5c0.8-6.6,0.9-13.5,2.9-19.8c4.1-12.6,1.5-24.4-2.8-36.1c-1.6-4.5-3.8-9.7-9.1-10.7
		c-6.9-1.4-8.6-5.3-8-11.5c0.2-2-0.7-4.1-0.6-6.1c0.3-4,0-8.5,1.8-11.9c2.4-4.7,6.2-8.8,10-12.6c1.4-1.4,4.8-1.7,7-1.2
		c8.3,1.8,15.1,6.6,20.1,13.3c2.3,3.1,4.7,3.6,7.9,2.9c9.9-2.3,16.5-10.9,15.5-21c-0.3-3.5,0.3-6,2.3-8.5c2.4-3,4.7-6.1,7.5-8.8
		c4.6-4.4,7.1-9.6,7.4-16c0.3-6.7,1-13.3,1.8-19.9c0.6-5.2,0.3-12.8,7.1-14.4c4.8-1.1,8.3,1.9,11.4,5.1c1.1,1.1,1.8,2.6,2.9,3.5
		c1.5,1.3,3.2,2.2,5.3,3.6c0.8-2.1,1.9-3.4,1.9-4.8c0-13.2,7.3-21.7,17.6-28.3c0.9-0.6,2.3-1.6,3.1-2.3c5-4.1,10.6-7.7,14.9-12.5
		c7.6-8.3,14.6-17.1,21.6-25.9c4.2-5.2,9.4-7.5,16-7.8c4.7-0.2,7.5,1.9,8.7,5.9c3.2,10.6,6.8,21,6.2,32.4
		c-0.3,4.3,4.1,24.5,5.9,28.3c0.7,1.4,1.5,2.6,2.3,3.9c4.3-0.1,6.7-2.8,9.3-5.3c4-3.9,8-8.1,12.4-11.4c8.8-6.6,13.3-6.5,22.1-0.3
		c1.1,0.7,2.2,1.4,3.2,2.2c4.5,3.5,9.5,4.6,15.1,4.3c5.4-0.3,10.8-0.3,16.2-0.1c5.8,0.2,10.9,1.5,13.8,7.8c1.3,2.8,4.4,5.1,7.2,6.7
		c3.8,2.1,7.9,3.8,12.1,4.8c8.5,2.1,15.4,6.2,21,13c4.7,5.7,5.2,13.7,1.4,20c-1.2,2-2.2,4.2-3.6,6.8c3.8,0.9,6.6,1.2,9.2,2.2
		c1.8,0.6,4.2,1.7,4.8,3.2c4.7,11.3,14.8,17.4,23.4,24.9c4.3,3.8,10.8,4.1,15.5,0.8c5.6-4,11.4-7.8,19.1-4.7c2.6,1,6.2,0.6,9-0.2
		c11.1-3.1,21.4-8,31-14.6c7.9-5.4,15.2-11.3,21.4-18.5c3.4-4,13-6,17.4-3.1c1.1,0.7,2,3.1,1.7,4.5c-0.7,3.2-2.1,6.3-3.3,9.3
		c-1.7,4.4-3.6,8.7-5.6,13.5c8.8,0.4,16.5,0.6,24.2,1.2c3.4,0.3,6.8,1.2,9.9,2.8c6.1,3.2,11,7.9,13.7,14.3c2.7,6.3,7.2,11,12,15.8
		c6.5,6.4,14.6,10.2,22.1,15.2c5.7,3.8,11.7,5,18.1,5.3c4.1,0.2,8.2-0.1,12.3-0.1c10.6,0.1,19.8-3.6,27-11
		c4.7-4.7,8.2-10.6,16.1-9.5c0.9,0.1,1.8-0.9,2.8-1.1c9.4-2.5,18.8-5.2,28.3-7.2c9.8-2,19.4-1.2,27.9,5.2c1.8,1.3,4.2,1.8,6.2,2.9
		c6.8,3.5,13.7,6.9,20.3,10.8c2.3,1.4,4.8,3.8,5.5,6.2c2.1,7.8,8.7,8.7,14.7,10.4c3.7,1.1,7.2-0.3,9.7-3.3c3.2-3.8,5.6-7.8,5-13.2
		c-0.7-7.1-1.2-14.3-0.9-21.5c0.4-9.7,1.6-19.4,2.7-29c0.2-1.6,1-3.7,2.2-4.6c4.5-3.3,9-6.9,14.1-9.2c7.7-3.4,15.7-6.3,23.9-8.4
		c9.6-2.4,16.4-7.9,22.1-15.6c3.6-5,7.2-10,11.6-14.3c7.7-7.7,17.9-10.8,28.2-13.3c6-1.4,11.7-3,16.4-7.7c2.6-2.6,6.5-4,10.1-5.3
		c8.7-3.1,17.6-2.6,26.6-1.2c13.8,2,27.5,6.7,41.7,1.7c5-1.8,7.4-2.9,7.7-8c0.2-4.5-0.7-9.1-1-13.7c-0.3-3.5-2.5-5-5.3-6.9
		c-5.1-3.3-10.1-7-14.3-11.4c-2-2.1-3.2-6.2-2.7-9.1c2.1-12.1,5-24.2,11.1-35c5.1-9,12-16.5,19.5-23.7c5.7-5.5,12.2-9.4,20.2-10
		c3-0.2,4.8-1.5,6-4c2.4-5.1,5.1-10,7.1-15.3c1.4-3.7,1.7-7.8,2.4-11.3c-5-1.6-9.6-2.1-13.1-4.3c-5.5-3.5-9.7-9-16.6-10.6
		c-1.6-0.4-3.2-2.6-4.1-4.3c-1.1-2-1.7-4.3-2.2-6.5c-1.6-7.7-3.4-9.3-10.1-8.4c-4,0.5-6.6-1.9-7.3-5.4c-0.7-3.4-0.9-7.1-0.2-10.5
		c2.5-11.8,11-19.5,19.6-26.8c4.6-3.8,6.1-8.2,6.6-13.9c0.7-7.3,1.6-15.2,4.8-21.6c5.3-10.5,6.7-21.6,7.3-32.8
		c0.5-8.6,1-17.6-6.1-24.6c-2.5-2.4-1.2-5.4,0-7.9c3.4-7.2,7.1-14.2,10.4-21.5c2.3-5.1,4.1-10.5,6-15.8c2.8-7.8,0.9-14.6-4-20.9
		c-5.3-6.8-8.9-14.4-9.2-23.2c-0.2-5.4-0.4-10.8-0.7-16.1c-0.4-8.7-0.9-17.4-1.5-26.1c-0.3-4.3-0.8-8.6-1.5-12.8
		c-0.4-2.5-2.1-5-1.9-7.4c0.6-7.1-5.8-8.1-9.4-11.3c-1.5-1.3-4.2-1.8-6.2-1.7c-12,0.7-21.7-3.8-30.8-11.5c-8.3-7-18-10.7-29.3-8
		c-3.4,0.8-7.2,0.8-10.7,0.7c-8.6-0.4-14.3-6.1-14.9-14.6c-0.4-5.6-0.4-11.3-0.9-16.9c-0.1-2-0.4-4.3-1.6-5.7
		c-5.5-7.1-10.8-14.4-17.2-20.7c-8.6-8.5-19.5-14.1-30.3-19.5c-6.1-3.1-12.7-4.4-19.8-3.1c-11.2,2-22.6,2.1-33.7-0.2
		c-6.7-1.4-12.9-0.9-19.1,1.6c-5.8,2.3-11.8,5.5-17.7,0.3c-16.7-4.1-33.4-8.5-50.7-9c-5.8-0.2-11.7,0-18.2,0
		c2.4,10.6-4.8,14.4-11.4,18.5c-3.5,2.1-7.3,3.7-10.8,5.9c-3,1.9-5.6,4.2-9.6,7.2c-1.8-8.2-7-6.3-11.8-5.5
		c-5.3,0.8-10.7,1.3-15.9,2.7c-8.2,2.1-16.1,1.6-24.3-0.4c-9.7-2.3-19.7-3.3-29.5-5.3c-10-2-20.3-3.8-29-9.4
		c-3.8-2.5-6.9-2.4-10.8-1.3c-12.8,3.7-25.9,6.6-37.5,13.7c-2,1.2-4.2,1.9-6.4,2.7c-2.9,1.1-5.3,0.8-7.6-1.8c-1.8-2-4.2-3.6-6.7-4.7
		c-5.1-2.2-5.7-2.5-4.6-7.8c0.8-4.3,2.1-8.5,3.3-12.7c3.2-11.9,6.3-23.8,9.8-35.6c1.6-5.2,4.9-9.4,9.6-12.6
		c9.5-6.5,12.6-16.2,8.7-26.9c-1.7-4.6-3.8-9-6.1-13.3c-3.1-5.8-5.6-6.7-12-4.9c-3.9,1.1-7.8,2.8-11.8,3.4
		c-7.7,1.1-10.8-2.1-10.4-10c0.1-2.4,0-4.8,0-6.5c-3.8-0.5-6.7-0.3-9.1-1.3c-4.7-2.1-8.9-5.2-13.5-7.2c-10.5-4.5-21.2-7.5-32.9-3.9
		c-7.3,2.3-14.4,1.1-19.9-4.7c-4.1-4.4-9.2-5.6-14.8-4.8c-5.1,0.7-10.1,1.9-15.1,2.8c-1.9,0.3-3.9,0.5-5.5,0.7
		c-0.7-1-1.2-1.4-1.2-1.9c-1.5-17.4-8.2-33.3-14.9-49.1c-2.5-5.8-0.5-14.5,4.9-17.9c6-3.9,9-9.4,12.1-15.5c2.5-5,5.9-9.5,9.1-14.2
		c2.5-3.8,5.3-7.5,7.8-11.3c4.6-6.8,9.4-13.4,16.4-18.3c1.2,0.5,2.4,1,3.6,1.6c11.3,5.8,23.1,9.5,35.3,4.2
		c8.2-3.6,16.4-2.9,24.8-2.6c10.9,0.5,21.5,3.3,32.8,2.6c11.3-0.7,19.6-4.8,26.3-13.4c1-1.3,2.6-2.2,4.1-3.5
		c1.9,1.6,4.2,2.6,4.9,4.2c5.3,11.9,16.1,10.7,26.2,11.5c2,0.2,4.3-0.1,6.1,0.6c2.8,1.1,6.2,2.2,7.7,4.5c4.5,6.5,10.5,9.4,18,10.3
		c1.5,0.2,3,0.7,4.5,1.2c2.9,0.9,4.2,3,4.1,5.8c-0.3,9-0.7,17.9-1.2,26.8c-0.1,2-1,4-1.7,5.9c-2.2,6.2-4.5,12.5-6.9,18.9
		c3.7,3.1,7.6,2.6,11.6,1.3c9-2.9,18-6,27.8-4.4c1.7,0.3,3.6-0.2,5.3-0.6c8.8-1.9,16.1,0.7,22.4,7.1c2.1,2.1,4.9,3.7,7.4,5.5
		c3.7,2.7,7.9,5,11,8.2c3.7,3.8,7.4,5.1,12.3,3c4.9-2.1,9.8-4.6,15-5.9c11.2-2.9,22.7-4.1,34.3-3.5c6.1,0.3,12.5,0.7,17.4,5.1
		c4.7,4.2,9.6,4.6,15.6,3.6c20-3.3,39.9-3.8,58.9,4.9c2,0.9,4.5,1.5,6.7,1.4c6.2-0.2,11.8,1.4,16.8,4.7c6,3.9,11.7,2.9,17.4,0.1
		c11.4-5.7,21.5-12.9,27.7-24.7c4.8-9.1,8.9-10.9,18.8-9.5c2.8-2.9,0.2,8.8,7.6,15.5c5.5,0.9,9.8,1.2,13.8,2.5
		c3.9,1.2,7.6,3.1,11,5.3c6.7,4.2,13.9,6.7,21.6,7.8c3,0.4,6.5,0.8,9-0.4c6-2.8,23.3-18.6,22.5-24.5c-1.5-11.2-0.6-21.6,10.3-28.4
		c4-2.5,5.3-6.5,6-11.1c1.5-9.4,3.6-18.6,5.1-28c0.7-4.5,2.7-7.3,7.2-8.9c5-1.7,7.5-1.9,10.3-2.1c7.1,0.8,9.2,0.6,13.9-1.6
		c8.1-3.8,14.6-9.2,20.2-16.2c6.2-7.7,9-7.9,18-4.3c2.3,0.9,4.8,1.2,7.3,0.8c4.3-0.7,8.5-2,12.7-3.3c6.3-1.9,10.5-5.7,12.2-12.6
		c1.7-6.7,4-13.3,6.8-19.6c1.5-3.3,4.2-6.6,7.2-8.6c4.9-3.4,11.1-5.1,12.5-12.2c0.2-1.1,1.7-1.8,2.5-2.8c1.9-2.4,3.8-4.8,5.5-7.3
		c1.9-2.7,2.4-5.9,0.7-8.7c-2-3.2-5.5-3.5-8.9-3.2c-2,0.2-4,1-6,1c-5.7,0.1-8.3-3.1-7.1-8.7c1.4-6.7,4.1-12.7,9.1-17.5
		c3.5-3.3,10.3-12.4,10.8-12.8c4.6-3.7,8-7,8.9-12.2c-0.6-0.7-0.8-1.3-1.3-1.5c-7.7-3.3-13.1-7.7-14.2-17.1
		c-1.1-9.3-10.2-14.9-19.6-13.9c-2.6,0.3-5.1,0.6-7.6,1c-16.5,3.1-33.1,3.7-49.8,2.5c-4.2-0.3-9.4-0.8-12.3-3.4
		c-5.9-5.2-11.4-11.2-15.3-17.9c-3.4-5.8-7.2-9.1-13.8-9.2c-2.6-0.1-5.1-0.2-7.7-0.1c-11.2,0.7-21.5-1.5-29.8-10.2
		c-1.3-1.3-2.6-2.6-4.2-3.6c-6.2-4-9.4-12.1-17.9-13.2c-1-0.1-1.9-1.6-2.8-2.5c-6-6.5-11.1-13.5-13.3-22.2c-0.4-1.6-1.6-3-2.6-4.8
		c-1.9,1.4-3.5,2.3-4.8,3.5c-6.6,6.1-14.7,9.1-23.2,11.5c-4.7,1.3-7.7,0.2-10.9-3.2c-6.9-7.3-15.5-11.1-25.7-12.1
		c-8.6-0.9-17-3.5-25.8-2.7c-2.3,0.2-5-1.2-7.2-2.4c-6.7-3.6-13.2-3.2-20-0.3c-4.7,2-9.5,3.9-14.4,5.4c-6.7,2.1-10.3-0.1-11.2-7.3
		c-1-8.4-1.3-16.9-2-25.3c-0.2-2.6-0.8-5.1-1.2-7.7c-1.6,0.3-2.1,0.3-2.6,0.5c-0.5,0.1-1,0.3-1.4,0.6c-8.2,6-16,5.1-23.9-0.9
		c-1.9-1.4-4.8-1.7-7.3-1.9c-6.2-0.7-10.6,3-15.2,6.4c-3.3,2.4-6.6,5-10.2,6.9c-6.9,3.7-12.3-0.1-17.4-4.3c-4.4-3.6-5-7.8-2.6-13.1
		c4.5-9.7,4.6-19.8,1.8-30.1c-1-3.7-1-7.6-1.5-11.4c-0.6-4.4,0.8-7.6,4.2-10.8c5.2-4.9,10.5-10.1,14-16.2
		c5.9-10.4,11.6-21.2,14.8-32.9c1.3-4.7,4-8,7.8-11c6.8-5.4,13-11.6,19.8-17.1c3.7-3,7.8-7.1,12.1-7.6c9.7-1.2,17.4-5.6,24.6-11.5
		c10-8.1,21.3-12.4,34.2-11.3c7.7,0.7,15.9,0.9,22.1,5.8c7.3,5.7,14.7,5.8,22.4,2.5c6.4-2.7,12.1-1.9,17.6,1.4
		c4.2,2.5,8.2,2.4,12.5,0.7c8.7-3.6,17.8-6.4,25.9-11.5c3.1-2,7.2-3,10.9-3.4c13.1-1.3,26.2-2.1,39.4-3.1c2-0.2,4-0.5,6.1-0.8
		c6.6-1.2,13-1.6,19.1,2c1.7,1.1,3.9,1.4,5.7,2.3c3.6,1.8,7,1.3,10.3-0.7c2-1.2,3.9-2.4,5.9-3.7c10-6.6,20-13.4,30.1-20
		c4.4-2.8,8.1-6.1,9.7-11.3c-0.9-1.1-1.4-2-2.2-2.6c-7.2-5.8-14.4-11.6-21.7-17.2c-1.5-1.1-3.8-1.9-5.6-1.7c-9.9,0.9-20-1.1-29.8,2
		c-3.6,1.2-6.3-0.9-6-4.7c0.3-3.7,1.5-7.5,3.2-10.9c2.7-5.2,6-10.1,9.3-15c6.5-10,14.2-18.9,25.3-24.2c5.4-2.6,10.9-5.2,15.6,1
		c1.4-0.4,2.5-0.5,3.3-1c13.1-7.5,28.1-11.6,39.5-22c1.5-1.3,3.5-2.2,5.5-2.8c5.2-1.7,8.5-5.4,11.8-9.5c5.5-6.8,11-13.5,17-19.9
		c6.6-7.1,14.6-12.1,24-14.8c3.6-1,7.2-1.3,10.1,1.6c2.2,2.3,4.5,2.1,7,1.2c5.4-1.9,10.8-3.1,16.6-2.5c2.1,0.2,4.5-0.9,6.4-2
		c13.4-7.5,22.8-19,31.1-31.5c1.4-2.2,1.7-5.2,2.6-8.1C2525.2,338.3,2520.7,337.8,2516.2,337.2z M935.7,1631
		c-0.7,3.7-2.4,7.5-4.8,10.4c-3.5,4.2-6.9,8-7.7,13.8c-0.2,1.6-2.3,3.4-4,4.2c-6.2,3-10.2,7.3-11.4,14.3c-0.4,2.2-2.2,4.8-4.1,6
		c-4.8,2.9-9.9,5.5-15.1,7.3c-5.4,1.9-10.6,4.1-14.5,8.3c-5.9,6.4-13,7.6-21.1,6.1c-3.5-0.6-7.1-1.1-10.6-1.4
		c-5.6-0.4-8.6-2.1-8.7-7.5c-0.1-7.1,1-14.2,2.2-21.3c0.3-1.9,2.5-3.7,4.2-5.1c6.2-5.5,6.9-10.2,1.6-16.3c-3.2-3.6-3.2-6.8-1.5-11.2
		c6.7-17.2,17.5-31.8,28.8-46.1c1.3-1.7,3.5-3,5.5-3.7c4.6-1.5,8.1-4.2,11-7.9c6.4-8.4,15.8-11.4,25.3-9.9
		c7.7,1.2,15.3,5.5,22.1,9.7c5,3.1,5.6,9.5,6,15.2c0.2,2.8,0,5.6,0,8.5c0.2,0,0.4,0.1,0.6,0.1C938.4,1613.3,937.5,1622.2,935.7,1631
		z M998.4,840.3c-1.1,3.6-1.7,7.1-4.5,10.3c-3.9,4.5-6.7,10.2-9.4,15.7c-4,8.1-10.3,14.1-17.3,19.3c-6.1,4.5-13.7,3.8-20.8,4.6
		c-5.4,0.6-10.5,1.6-15.2,4.9c-4.3,3-7.1,6.8-7.7,11.8c-0.7,6.1-4.3,10.1-9.7,11.8c-6.3,1.9-10,5.6-12,11.7c-0.5,1.6-1.7,3.3-3,4.3
		c-11.7,9.2-24.5,16.2-39.5,17.5c-4.2,0.4-8.7-0.9-12.7-2.3c-6.8-2.3-12.5-1.3-17.5,4c-1.7,1.9-4.1,3.3-5.5,5.3
		c-7.3,9.9-18.1,13-29.2,15.4c-9.3,2-20.2-4.6-23.4-13.5c-1.3-3.6-2.1-7.4-3.8-10.9c-1.2-2.5-3-5.1-5.2-6.5
		c-8.7-5.5-10.7-13.9-11-23.2c0-0.8-0.1-1.5-0.1-2.8c-1.6-6.1,1.7-11.2,5.3-15.9c4.2-5.5,8.9-10.6,13.8-15.5
		c2.5-2.5,5.7-4.3,8.8-6.1c4.4-2.6,8.9-2.5,12.9,1c5.3,4.7,11.3,4.3,18,4.2c14.2-0.3,24.8-6.3,34.2-16.4c4-4.3,9.8-7.3,15.3-10
		c4-2,8.5-2.9,13.2-0.2c4.5,2.5,9.3,1.1,14-1c12.4-5.4,25-10.6,37.5-15.7c1.8-0.7,4.1-0.9,6-0.6c13.6,2.5,27.2,0.8,40.6-0.9
		c4.4-0.6,8.6-3.1,12.6-5.3c4.1-2.2,7.9-3.5,12.3-1.1C997.9,835.5,999.4,837.3,998.4,840.3z M1055.5,811.5
		c-0.5,4.5-2.5,8.3-5.3,11.7c-4.3,5.4-10.1,7.2-14.7,4.5c-4-2.3-6.3-9.8-4.5-15.2c1-2.9,2.2-5.7,3.1-8.6c1.2-4.1,0.8-7.9-1.5-11.8
		c-3.8-6.5-3.1-8.2,1.6-14.4c4.9-6.5,9.1-13.6,13.6-20.4c0.7-1,1.4-2,2.5-3.5c6.2,6.9,6.9,7.1,15,3.8c2.8-1.2,5.4-2,7.7,0.5
		c2.3,2.5,1.1,5.1,0.3,7.9c-1.2,4.4-2.1,8.9-2.5,13.4c-0.3,3.1-0.8,5.9-3.7,7c-7.2,2.7-8.7,8.9-10.1,15.2
		C1056.4,804.9,1055.8,808.2,1055.5,811.5z M1128.5,841.8c-3.4,5.1-7.3,9.8-11.1,14.6c-0.3,0.4-0.7,0.8-1.1,1
		c-8.2,3.7-14.4,9.5-19.1,17.2c-1.8,3-5.5,2.7-8.4,1.5c-3.8-1.6-7.4-1.5-11.2-0.2c-3.1,1.1-5.4,0.6-7.9-2.4c-2.6-3-7-4.5-11.6-7.2
		c0.3-5.8,2.3-11.8,8.4-15.8c2.6-1.7,5.3-3.2,8.2-4.1c13.2-4.1,21-14.5,25.3-26.1c3.5-9.4,4.9-20.5-0.2-30.7c-1-2-1.4-4.2-2.1-6.2
		c8.7-4.5,11-4,15.7,3.4c2.5,3.9,4.9,7.7,9.1,10.2c3.6,2.1,5.1,5.7,3.5,10c-2.7,6.8-0.8,13.1,1.6,19.4c1.1,2.8,2.1,5.8,2.4,8.8
		C1130.1,837.4,1129.6,840.1,1128.5,841.8z M1377.3,1219.9c-6.1,2.6-12.4,4.7-18.8,6.5c-5.5,1.6-8.7-0.2-10.8-5.6
		c-0.8-1.9-1.3-3.9-1.4-6c-0.8-8.8-4-16.9-7.6-24.9c-1.7-3.7-3.6-7.4-4.5-11.4c-1-4.2-3.5-5.8-7.1-5.4c-3.8,0.3-7.5,1.5-11.1,2.6
		c-1.4,0.4-2.6,1.6-3.9,2.5c-8.4,5.6-8.7,5.5-12.2-3.6c-1.8-4.7-4.4-5.5-7.9-2.1c-3.5,3.4-6.6,7.1-9.7,10.9
		c-4.7,5.7-10.7,8.5-18,8.8c-16.3,0.7-29.4,7.8-39.7,20.4c-4.4,5.4-8.8,10.7-13.5,15.8c-6.3,7-15.3,9.3-23.6,12.4
		c-7.8,2.9-14.7,7.1-21.4,12.1c-8.6,6.5-9.6,10-4.4,20.4c-2.6,1-4.6,1.8-6.4,2.4c-3.4-5.8-6.8-10.9-9.5-16.3
		c-3.4-6.8-5.5-13.8-2.1-21.4c2.6-5.6,5.7-7.9,11.5-6c6.4,2,9.7-0.4,12.4-5.6c4.5-8.3,9.6-16.3,11.8-25.8
		c2.2-9.5,9.9-14.2,18.9-15.9c10.1-1.9,14.9-4.8,16.8-14.9c1.8-9.5,7.1-14,16-16.2c6.6-1.7,13.4-3.8,19.4-7
		c5.3-2.8,10.3-6.9,14.4-11.3c10.8-11.5,24.3-16.4,39.2-19.4c9.9-2,19.4-0.3,29,0.6c4.1,0.4,7,2.8,8.9,6.6c1.6,3.2,3.8,6.1,5.3,9.4
		c3.5,8,10.1,11.3,18.2,12.2c15.2,1.7,21.8,9.8,20.5,25.4c-0.9,10.8,0.1,21.5,1.4,32.1C1388.4,1211.2,1385.6,1216.4,1377.3,1219.9z
		 M1651.8,796.1c-0.8,3.2-2.1,6.4-3.8,9.2c-3.5,5.5-3.6,11.2-1.4,17c2.5,6.6,1.2,11.8-4.1,16.6c-4.9,4.4-7.9,9.8-7.7,16.9
		c0.1,3.2-0.7,6.7-1.9,9.8c-3,7.7-0.9,15,0.4,22.5c1.9,11.1,3,22.3,4.2,33.5c0.2,1.5-0.7,3.5-1.7,4.8c-4.6,5.9-11.5,6.7-18.1,3.1
		c-7.3-3.9-14.2-8-18.6-15.5c-1.2-2-4-3.1-6.1-4.5c-1.5-1-3.3-1.6-4.4-2.9c-3.2-3.3-3.8-19.9-1.4-24c2.1-3.5,4.3-7,5.6-10.9
		c1.8-5.2-0.3-10-3.2-14.5c-1.6-2.6-3.3-5.2-4.3-8c-2.4-6.6-1.8-9.2,3.9-13.1c10.5-7.1,20-15.3,28.3-24.8c5.2-5.9,9.4-12.6,14.9-20
		c3.6-0.7,8-1.5,12.5-2.3C1650.5,788,1653.1,790.6,1651.8,796.1z"/>
	<path class="st10" d="M2724.6,1881.6c2-0.3,3.1-0.3,4-0.6c8.6-3,17.1-2.3,25.7-0.1c2.9,0.7,6.2,0.9,9,0.2
		c9.9-2.6,19.7-5.8,29.6-8.6c7.6-2.1,15.3-4.2,23.1-5.8c7-1.4,12.2-4.9,16-10.8c1.2-2,2.6-3.9,3.7-5.9c2.3-4,5.4-6.6,10.1-7.6
		c2.2-0.5,4.1-2.2,6.1-3.4c0.3-0.8,0.6-1.6,0.9-2.5c-1.6-0.9-3.3-1.6-4.7-2.6c-4.8-3.5-5.5-8-4.1-13.6c1.6-6.1,5.9-9.2,10.8-12.3
		c5.3-3.4,7-11.4,2.6-14.3c-9.9-6.4-18.7-15.4-32.5-13.1c-7.3,1.2-8.6-0.6-8.9-7.9c-0.3-6.8-1.7-13.3-5.4-19
		c-5.5-8.5-4.2-16.3,1.5-24.2c4.5-6.2,8.2-13,12.7-19.2c3.5-4.9,5-11.2,11.2-15.7c1.8,6.2,5.8,4,9.5,3c4.9-1.2,10.5-1.4,14.7-3.8
		c6.1-3.6,11.8-8.3,16.7-13.5c4.3-4.6,7.9-10.1,10.5-15.8c4.1-9.1,7.2-18.6,10.7-28c1.4-3.8,1.6-7.5-1.6-10.8
		c-2.8-3-1.8-5.6,1.2-7.7c2.7-2,5.6-3.7,8-6c3.8-3.7,7.6-7.6,10.8-11.8c2.8-3.8,2-6.4-2.3-7.6c-4.4-1.2-5.6-3.7-5.8-7.7
		c-0.2-3.8-0.8-7.7-1.8-11.4c-1.9-7.1-0.6-9.3,6.2-10.5c12.7-2.2,25.2-4.8,34.4-15.1c1.9-2.1,4.3-3.7,6.6-5.3
		c9.1-5.9,12.2-14.1,10.2-24.5c-0.6-3.1,0.1-5.8,2-8.6c4.4-6.8,6.1-14.4,4.9-22.6c-1.3-9.1-2.6-18.3-3.5-27.4
		c-1-9.4-1.5-10.5-10.7-12.1c-14.5-2.6-25-10.1-30.6-24c-2.2-5.4-6.3-8.8-11.7-10.3c-3.4-1-7-1.3-10.6-1.8
		c-11.1-1.5-19.8-5.8-24.2-17.3c-4.1-10.7-11.4-18.7-23.4-21.2c-1.7-0.4-3.4-1.2-5.1-1.7c-4.4-1.4-7.2-4.3-7.1-9
		c0.1-5.2-2.7-7.3-7.1-8.5c-2.5-0.7-4.9-1.8-7.4-2.2c-7.3-1.4-12.8-5.4-16.1-12c-4.3-8.7-11.1-11.1-20.5-11.7
		c-20.2-1.2-21.2-3-27.4-18.1c-1-2.4-2.1-4.7-3.5-6.8c-0.9-1.5-2.2-2.8-3.6-3.9c-4.6-3.4-8.5-2.1-8.5,3.5c0,8.7-3.8,15.2-9,21.5
		c-2.4,2.9-3.3,6.1-2.1,10c0.7,2.2,0.2,5.1-0.5,7.4c-1.3,4.7-3.1,9.2-4.9,13.8c-0.5,1.3-1.7,3.3-2.6,3.4c-4.3,0.2-6.6,3.6-9.8,5.5
		c-6.8,4.2-13.7,7.9-22,8.7c-12.4,1.1-23.7,6.1-35.1,11c-5.6,2.4-9.2,6.5-10.9,12.2c-2.3,7.4-4.6,14.7-6.4,22.2
		c-1.4,6-1.9,12.2-8,15.9c-1,0.6-1.6,2-2,3.2c-2.6,8.1-8.4,12-16.6,12.4c-4.6,0.2-9.1,0.2-13.7,0.3c-2,0-4.4-0.7-6,0.2
		c-8.2,4.3-15.7,9.7-20.7,17.9c-3.1,5-5.7,10.3-8.5,15.5c-1.2,2.2-2.7,4.5-3.2,6.9c-3.1,15-0.1,28.5,11.1,39.9c2-1.1,3.9-2.4,6-3.2
		c13.4-5,21-5.8,27.6,6.3c1.5,2.7,3.5,5.1,5.3,7.6c6.3,9.1,7.5,18.4,1.3,28c-3.2,4.9-3.5,10-2,15.5c0.8,2.7,1.2,5.5,1.8,8.3
		c1.4,6.3,0.8,12-3.1,17.6c-7.5,10.6-10.1,22.7-11.5,35.4c-1.1,10.2-3.5,20.2-5,30.3c-1.1,7.6-1.8,15.2-2.6,22.9
		c-0.6,5.6,2.5,9.9,7,11.9c7.4,3.2,11.3,9.4,16,15.1c7.5,8.9,9.3,19.2,7.6,30.4c-0.3,2-0.8,4-1.2,6.1c-1.7,10.8,0.7,20.3,8.2,28.5
		c2.7,3,4.5,6.8,6.7,10.2c2.9,4.5,5.1,9.8,9,13.2c14.5,13,29.1,26,46.4,35.4c4.9,2.7,9.8,5.5,14.7,8.3c5.3,3,8.1,7.5,9.2,13.5
		C2721.7,1874.6,2723.4,1878,2724.6,1881.6z"/>
	<path class="st10" d="M2480,1989.8c-0.5-0.5-1.1-0.9-1.6-1.4c-3.2,1.4-6.6,2.5-9.7,4.2c-5.7,3.3-11.2,7-17,10.2
		c-2.4,1.3-5.2,2.1-8,2.4c-7.3,0.8-14.7,1.3-22.1,1.8c-1.5,0.1-3-0.4-4.5-0.7c-8-1.9-15.9-4.1-23.9-5.8c-12-2.5-24.1-6.2-36.1,0
		c-0.7,0.3-1.5,0.4-2.3,0.4c-18.6,0.2-37.1-0.4-54.1-9c-14.6-7.5-30.3-8.1-46.1-8c-1.7,0-3.7,0.4-5.2,1.3
		c-8.7,5.3-17.4,10.7-25.8,16.4c-7.4,5-13.7,12.1-22.9,13.6c-6.7,1-9.5,4.9-11.3,10.7c-3,9.8-7.5,18.6-17.2,23.5
		c-3.2,1.6-4.5,4.5-3.4,7.8c2.9,8.9,4.6,18.2,16.4,20.9c11.1,2.6,20.8,8,21.1,21.8c0,0.2,0.3,0.4,0.4,0.6c0.5,0.2,1,0.6,1.4,0.5
		c14.2-3.3,28.4-6.5,42.6-10c4.1-1,8-2.2,11.9,0.2c4.8,2.9,10,5.3,14.4,8.8c3.9,3.1,7.7,3.4,12.2,2.8c4.5-0.6,9.1-1.1,13.7-1.2
		c14.9-0.4,29.7-1.4,43.5-8.1c2.4-1.2,6-0.6,8.8,0.1c12.2,2.8,22.6,0.9,31.7-8.5c4.7-4.9,10.6-8.9,16.5-12.4c2.8-1.7,7-2.4,10.2-1.8
		c6.8,1.2,13.3,3.5,20,5.4c1.3,0.4,2.7,0.5,4.3,0.7c-0.1-1.4,0-2.2-0.3-2.9c-3.8-12.1-1.3-20,8.7-28.2c3.5-2.9,6.8-6.2,9.8-9.6
		c4.1-4.6,7.4-10,11.8-14.1C2478,2013,2477.5,2001,2480,1989.8z"/>
	<path class="st10" d="M464.7,107.2c-7.1-0.3-13-0.1-18.7-1c-10-1.4-14.3-7.9-13.3-18c0.3-3.2,0.3-6.8-0.9-9.7
		c-3.2-8.1-6.7-16.1-13-22.5c-5.2-5.3-5.2-5.6-1.5-11.8c2.9-4.7,2.6-8.6-1-12.5c-1.9-2.1-4.4-4.1-2.3-7.3c1.9-2.9,4.5-4.9,8.3-4.8
		c2,0.1,4.2,0.3,5.9-0.4c7-3,14.4-3.9,21.8-3.7c7.3,0.1,14.2-1.3,21.1-3.6c8.6-2.9,15.1,0.5,20.1,7.2c2.8,3.8,5.5,6,10.7,4.9
		c4.1-0.8,8.6,0.5,13,0.5c4.1,0,6.6,1.9,8.6,5.3c5,8.3,15.9,12,25.1,9.1c11.1-3.6,21.8-1.7,32.2,2.6c2.5,1,4.8,3.1,6.6,5.1
		c3.4,3.9,7.2,6.5,12.4,7c9.9,0.8,18.7,5.1,27.7,8.7c2,0.8,3.9,3.4,4.6,5.5c2.5,7.9,5.5,15.3,12.1,20.9c3.2,2.7,2.8,5.3-1.2,9
		c-5.2,4.7-8.4,10.3-8.6,17.4c0,1.8,0,3.6,0.4,5.3c0.8,3.9,0.6,7.5-1,11.2c-1.2,2.8-1.8,6-1.6,9c0.3,4.1-1.1,6.9-4.4,9.1
		c-6.4,4.3-12.6,8.8-19.2,12.8c-4.5,2.7-9.3,4.1-14.6,1.4c-1.9-1-4.4-1-6.6-1c-4.4,0-8.7,0.6-13.1,0.4c-8.1-0.3-15.6,0.9-23.1,4.6
		c-5.1,2.5-11.2,3.3-17,4.4c-1.4,0.3-3.8-0.8-4.5-2c-4.3-7.8-10.5-7.9-17.8-5.3c-1.4,0.5-2.9,0.4-4.4,0.6
		c-2.2-6.6-4.2-12.9-6.4-19.1c-0.5-1.4-1-3-1.9-4.2c-4.4-5.6-9-11.1-13.5-16.7c-3.4-4.3-7.1-8-12.9-9
		C467.7,115.7,466.5,110.6,464.7,107.2z"/>
	<path class="st10" d="M1962.8,2108.3c-5.4-1.2-9.7-0.3-12.7,4c-6.4,8.8-11.2,7.4-19.3,4.1c-5.4-2.2-11.3-4.3-17-4.2
		c-7.6,0.1-11.3-3.5-14.1-9.5c-1-2.1-1.8-4.2-2.6-6.4c-3.4-9.6-12.2-14-21.7-10.9c-2.4,0.8-4.8,1.9-7.3,2.3
		c-2.4,0.3-5.3,0.5-7.3-0.6c-5.4-2.9-10.7-3.3-16.4-1.7c-3.7,1.1-7.1,0.7-9.7-2.6c-2.4-3-5.8-3.2-9.1-2.2c-4.7,1.4-9.5,2.6-13.8,4.8
		c-5.5,2.8-11.1,4.5-17,3.8c-9.9-1.1-17.6,3.4-24.3,9.5c-3.2,2.9-5.7,7.3-7,11.5c-1.5,4.6,0.6,7,5.3,7c3.8,0.1,8.2,0.1,11.2-1.7
		c4.7-2.9,9.2-3,14-2c7.3,1.5,14.4,3.4,21.6,5.1c5.2,1.3,10.4,2.9,15.6,3.8c5,0.8,9.3,2.4,13.3,5.5c2.3,1.8,5.3,3.2,8.2,3.6
		c12.2,1.8,24,0,35.1-5.5c3-1.5,6.1-2.8,9.3-3.4c3.8-0.8,7.6-0.9,10.3,3.2c0.9,1.3,3.4,1.8,5.2,2.1c5.7,1,11.9,0.8,17.2,2.9
		c6.5,2.6,12,1.7,17.7-1.2c3.4-1.7,6.4-4.2,9.6-6.3C1962.3,2120,1964.4,2115.2,1962.8,2108.3z"/>
	<path class="st10" d="M2617.9,539.1c-8.1-7.4-16-6.8-24.2-3.8c-3.4,1.2-6.9,2.1-10.3,3.3c-7.5,2.7-14.6,1.2-21.7-1.8
		c-4.2-1.8-8.7-3.1-12.6-5.3c-6.7-3.9-13.6-3.8-20.9-2.9c-5.5,0.7-6.3-0.2-6-5.6c0.7-11.7-2.5-15.3-14.1-13.3c-11,1.9-22,1.4-33,1.2
		c-4.4,0-8.9,0.2-10.6-5.4c-1.7-5.4,0.5-10,4.3-13.2c4.6-4,10.8-4.5,16.7-4.2c1.3,0.1,3.1,1.1,3.8,2.2c3,4.5,6.8,3.6,11,2.5
		c9.4-2.4,19-4.5,28.3-7.2c7.4-2.1,14.1-0.8,20.9,2c2.7,1.1,5.8,1.6,8.8,1.7c8.4,0.2,16.9-0.2,25.3,0.3c3,0.2,6.1,2.1,9,3.5
		c3.2,1.5,6,4.1,9.3,5c4.1,1.2,7,3.2,8.6,6.9c1.9,4.3,4.6,7.2,9.6,7.8c1.7,0.2,3.4,1.1,5,2c4,2.4,4.6,4.1,2.3,8.1
		C2624.7,528.3,2621.5,533.2,2617.9,539.1z"/>
	<path class="st10" d="M124,1800.4c11,7.7,9.8,17.4,6.8,27c-2.8,8.9-11.9,12.1-19.8,7.1c-6.9-4.4-13.5-4.8-21.1-1.9
		c-7.6,2.9-15.5,5-23.4,7.2c-4.6,1.3-9.6-1.6-12.8-6.4c-6.5-9.7-7.9-20.3-5.7-31.6c2.3-12.3,9.5-17.4,21.8-15.6
		c4.9,0.7,7.3-1.5,6.3-6.5c-1.3-6.4-2.6-12.8-11.4-13.1c-1.6-0.1-3.7-2.6-4.4-4.5c-0.7-2-0.7-4.8,0.1-6.7
		c4.5-11,12.1-18.9,23.9-21.9c4.6-1.2,25.2,7.5,27.5,11.6c1.1,2,1.7,4.3,2.1,6.5c0.6,3.3,0.7,6.7,1.4,9.9c1.5,6.7,2.5,13.5,7.5,19
		C128.3,1786.3,129.6,1793.1,124,1800.4z"/>
	<path class="st10" d="M616.6,2053.2c0.8,2.7,1.6,5.1,2.2,7.5c1.8,6.5,0.8,8.9-4.6,13.2c-2.1,1.7-4.1,3.8-5.7,6.1
		c-3.8,5.4-8.9,5.7-12.9,0.4c-0.8-1-1.3-2.2-2-3.3c-2.9-4.7-6.6-7.4-12.6-7c-5.8,0.4-11.8-0.2-17.6-0.7c-4.7-0.4-6.6-2.3-6-7
		c0.9-7.1,2.1-14.2,4-21.1c1.7-6.2,2.9-6.4,9.6-5.6c1,0.1,2,0.1,2.8,0.1c3.3-4.2,6.4-8.2,9.4-12.1c-0.3-1.4-1.5-3.9-0.7-4.9
		c1.5-2,5.8-0.8,7.2,1.4c4.8,8.1,14,13.9,22.7,14.5c3.1,0.2,6.2,0.5,9.1,1.2c4.4,1.2,6.4,4.2,6.5,8.4c0.1,4.6-2.8,6.2-6.6,7.2
		C619.9,2052.1,618.5,2052.6,616.6,2053.2z"/>
	<path class="st10" d="M2374.6,1357.5c-1.6-2.3-3.6-4.9-5.5-7.5c-2.5-3.5-5-7.2-7.6-10.6c-4.2-5.5-4.3-11.2,0.1-16.7
		c0.8-1,1.9-1.8,2.4-2.9c2.4-4.5,6.6-5.3,10.5-3.8c6.3,2.4,11.5,0.2,16.8-2.5c7.8-3.9,15.7-7.5,23.5-11.4
		c8.9-4.5,21.3,4.4,22.3,15.6c0.2,1.9-1.1,4.7-2.6,5.8c-5.3,4-8.2,8.5-9.6,15.5c-2.1,11-7.2,21.3-17.1,28.3
		c-4.4,3.1-4.4,3.5-8.3-0.1c-2.3-2.1-4.4-4.3-6.5-6.6c-6.2-6.9-8.2-7.3-16.2-3.1C2376.4,1357.7,2375.8,1357.5,2374.6,1357.5z"/>
	<path class="st10" d="M2513.3,292.2c9.8-7,9.8-7,6.4-14.5c4.4-0.4,8.6-0.4,12.8-1.2c5.2-0.9,10.5-2.2,15.6-3.7
		c6.2-1.9,11.4-1.8,17.2,2.3c4.3,3.1,10.4,3.7,15.7,5.3c2.5,0.8,5.1,1.4,7.6,2.8c-4.6,3.2-9.6,4.5-14.6,5.5
		c-2.2,0.4-4.6,0.6-6.9,0.4c-6.7-0.8-12,1.1-17.6,5.2c-8.9,6.4-19.4,7.7-29.8,2.7C2517.5,296,2515.8,294.2,2513.3,292.2z"/>
	<path class="st10" d="M2633.2,313.5c6.4-1.2,14-2.2,21.3-4.2c7.3-2,14.3-5.4,21.6-7.6c5.4-1.6,8.7,0.3,10.8,4.6
		c2.2,4.4,1.3,8.5-3.3,10.2c-10,3.9-20.1,7.5-30.3,10.6c-6.3,2-12.9,2.9-19.4,4.3c-1,0.2-2,0.7-3,0.6c-2.9-0.2-6.6,2.2-8.4-1.4
		c-1.6-3.3,2.5-4.5,3.9-6.7C2628.7,320.8,2630.8,317.5,2633.2,313.5z"/>
	<path class="st10" d="M1674.7,2066.1c0.6,3.3,1.6,5.3,1.1,6.9c-1.2,3.6,0.5,5.9,2.4,8.4c2,2.7,4.1,5.3,5.8,8.1
		c2.9,4.9,1.9,9.8-3.1,12.4c-7,3.6-14.4,5-22.1,1.9c-2.6-1-5.3-2-7.8-3.2c-3.7-1.9-7.2-1.6-11.1-0.1c-3,1.2-6.4,1.7-9.6,1.7
		c-1.1,0-3.5-2.4-3.3-3.2c1.1-3.8,1.7-9.2,4.5-10.9c7.3-4.7,12.6-12.1,21.4-14.6C1659.7,2071.6,1666.3,2068.9,1674.7,2066.1z"/>
	<path class="st10" d="M632.4,1980.1c3.3,0.9,5.9,1.2,8.1,2.3c3.1,1.4,4.5,4.2,3.9,7.6c-0.4,3-1.9,5.6-5.1,6
		c-5.2,0.6-7.9,3.8-10.4,7.9c-4.4,7.1-12,10.1-19.2,13.4c-0.9,0.4-3,0.1-3.4-0.6c-0.7-1.1-1.1-3.1-0.5-4
		c6.4-9.8,12.8-19.7,19.7-29.2C627,1981.6,630.3,1981.1,632.4,1980.1z"/>
	<path class="st10" d="M595.9,2004c-2-2.9-3.8-5.4-6-8.6c-2.6-1.2-5.7-0.2-8.7,1.4c-2.7,1.4-5.4,2.7-8.1,4.1
		c-4.7-5.5-4.8-8.5-0.8-13.2c1.2-1.4,1.9-3.5,2.5-5.3c1.1-3.6,2.6-7,6.6-7.7c4.3-0.8,7.3,1.2,9.4,5.1c1.5,2.8,3.9,4.6,7.3,5.1
		c3.4,0.5,4.9,2.6,3.5,6.1C600,1994.9,601.1,2000.1,595.9,2004z"/>
	<path class="st10" d="M634,1936.3c2.7,8.5-0.6,23.3-6.7,31.1c-5.2-2.3-10-5-10.5-11.5c-0.3-3.9-3.1-4.8-5.6-6.6
		c-1.5-1.1-3.6-3.4-3.3-4.3c0.7-1.8,2.7-3.7,4.6-4.3c2.9-0.9,6.2-1.3,9.1-0.8C626.1,1940.6,630.1,1940.3,634,1936.3z"/>
	<path class="st10" d="M1507.6,2148.7c-2.8-9,2.3-15.8,12.8-16.8c4-0.4,8.1-0.7,12.2-0.8c8.7-0.4,13.9,4.3,13.7,13.1
		c-10.4-2-19.8,2.9-29.7,4.6C1513.6,2149.3,1507.6,2148.7,1507.6,2148.7z"/>
	<path class="st10" d="M1576.9,2108.5c-0.9-1.6-2.9-3.5-4.4-3.5c-2.3-0.1-5,0.9-6.8,2.3c-5.7,4.7-11,9.8-16.4,14.8
		c-1.9,1.8-3.6,3.8-5.1,5.5c2.6,2.4,4.6,4.3,7.1,6.6c0,0,0,0,0,0c1.4-0.4,3.6-1.5,3.3-1.5c6.6-5.7,13.2-11.2,19.7-16.9
		C1576.5,2114,1578.5,2111.5,1576.9,2108.5z"/>
	<path class="st10" d="M1597.2,2128.3c-1.9-0.5-4.2-0.6-5.7-1.8c-2.1-1.6-4.7-3.9-4.9-6.1c-0.2-2.2,1.8-5.7,3.9-6.7
		c4.8-2.6,10.2-4.4,15.5-5.9c2.6-0.7,5.6-0.6,7.5,2.3c1.8,2.8,0.2,5.1-1.2,7C1608.4,2122.2,1604.2,2127.1,1597.2,2128.3z"/>
	<path class="st10" d="M2516.7,163.9c0.9-1.6,1.2-2.9,1.9-3.3c5.5-2.7,11.2-4.8,15.8-9.1c0.6-0.6,3.5,0.3,4.6,1.4
		c3.4,3.4,6.4,7.1,9.6,10.8c-0.3,3.4-3,3.8-5.5,4.2c-1.7,0.2-3.6-0.1-5.3-0.4C2531,166.4,2524.4,165.2,2516.7,163.9z"/>
	<path class="st10" d="M1443.4,2118c-3-0.4-5.6-0.5-8.1-1.1c-1.1-0.2-2.7-1.3-2.8-2.1c0-1.3,0.7-3.2,1.7-3.8c4-2.3,8.7-3.6,12.2-6.3
		c4-3.1,7.7-2.2,11.6-1.2c3.7,0.9,5.7,4,5.3,7.4c-0.4,3.6-3.2,4.4-6,4.9C1452.6,2116.6,1447.7,2117.3,1443.4,2118z"/>
	<path class="st10" d="M1506.2,2125.4c-5.2,2.9-10,6-15.2,8.3c-2.6,1.1-6.1,1.5-8.7,0.8c-2.7-0.7-6.9-3.2-6.9-4.9
		c0-2.7,2.7-5.7,4.8-8.1c1-1.2,3.1-1.7,4.9-2c7.3-1.3,14,1,20.4,4.1C1505.9,2123.8,1506,2124.8,1506.2,2125.4z"/>
	<path class="st10" d="M2500,170.8c-0.1,4.1-2.9,6.9-6.9,6.5c-7.5-0.8-11.8-6.6-16.5-11.5c-0.5-0.6-0.3-2.7,0.4-3.4
		c0.6-0.7,2.6-1.1,3.3-0.6c3.5,2.5,7.1,1.9,11,1.2C2496.6,161.9,2500.2,165.4,2500,170.8z"/>
	<path class="st10" d="M911.8,1599.9c-2.1-0.4-4.3,0.5-5.9,1.8c-1.5,1.1-2.7,2.6-4.2,3.7c-4.3-0.3-7.7,2.6-10.7,5.5
		c-3.9,3.7-8.1,7.2-11.4,11.4c-2.8,3.5-4.7,8.3-3,12.8c1.4,3.5,4.8,5.7,8.5,6.2c4.1,0.5,8-1.4,10.6-4.5c1.3-1.6,2.3-3.3,3-5.3
		c0.3-0.9,0.7-2,0.5-3c-0.2-1.1-1.1-1.8-1.4-2.8c-0.6-1.8,0.7-3.9,2.2-4.8c2.1-1.2,4.8-0.7,7-1.4c4-1.2,6.1-4.9,7.3-8.6
		C915.6,1607.3,917.2,1600.8,911.8,1599.9z"/>
	<path class="st10" d="M2425.7,1250.7c-3.4-4.7-9.6-5.1-14.6-3.1c-2.6,1-5.2,2.5-7.2,4.4c-2.1,2.1-2.8,4.5-3.2,7.4
		c-0.4,3.2-1.2,6-3,8.6c-1.7,2.4-4,4.4-6.6,5.8c-4.9,2.5-11.5,1.1-15.7,4.8c-6.3-4.6-6.9-14.9-1.1-20.2c0.5-0.4,0.4-1.2,0-1.6
		c-2.5-2.5-6.2-3.3-9.6-2.5c-3.6,0.8-6.5,3.3-8.4,6.4c-2.2,3.6-3.1,7.8-3.5,12c-0.5,4.9-0.7,9.8-1.8,14.6c-1.2,5.3-3,10.4-5.4,15.3
		c-0.3,0.6-0.1,1.2,0.4,1.5c2.9,2.1,7.2,4.3,10.9,2.6c2-1,2.6-3.1,4.3-4.3c0.8-0.6,1.8-0.9,2.7-0.9c4.2,2.6,8.6,4.8,13.5,5.2
		c6.3,0.4,11.7-3.1,17.2-5.6c4.7-2.1,9.8-4.1,13-8.4c3.4-4.4,3.4-10.1,4.4-15.4c0.6-2.8,1.4-5.5,3.4-7.6c2-2.2,4.5-3.7,6.7-5.6
		C2426,1260.8,2429,1255.4,2425.7,1250.7z"/>
	<path class="st10" d="M2752.6,1272.5c-4.6-7-7.2-15.2-7.3-23.6c0-2,0.1-4,0.4-5.9c0.2-1.9,0.3-3.9-0.8-5.6
		c-0.9-1.6-2.4-2.7-3.9-3.7c-1.7-1.2-3.4-2.2-5.3-3.2c-4.1-2.1-8.6-3.4-13.1-4.1c-0.6-0.1-0.9,0.1-1.3,0.5c-3,3.9-0.8,9.1,1.9,12.5
		c1.6,1.9,3.4,3.7,4.8,5.8c1.7,2.6,1.9,5.3,1.4,8.3c-0.4,2.6-1,5.1-1,7.7c0,2.3,0.4,4.7,1.3,6.9c1.5,4.1,4.5,7.6,8.8,9.1
		c4.4,1.5,9.4,2.4,12.6-1.2c0.1-0.1,1.9-0.8,2-0.9C2753.9,1275.1,2753.2,1273.3,2752.6,1272.5z"/>
	<path class="st10" d="M2715.4,1244.9c-2.6-1.9-4.6-4.5-5.7-7.5c-1.6-4.3-1-8.5,0.5-12.7c1.5-4.1,2.5-12.9,2.5-12.9
		c-4.2-2.4-1.9-9.4-6.5-7.2c-3,1.4-5.5,1.8-7.3,4.5c-2,3-2.4,6.4-0.4,10.7c2.3,5.1,1.7,11,2.5,16.5c0.7,4.5,1,9.4,2.9,13.6
		c1.6,3.6,4.6,6.4,8.7,6.1c2.6-0.2,5.2-1.7,6.1-4.1C2719.4,1249.1,2717.1,1246.7,2715.4,1244.9z"/>
	<path class="st10" d="M2732.6,1206.2c1.1-2.4-8,0.2-10.2,1.8c-2.1,1.5-3.3,4.1-2.9,6.6c0.4,2.5,2.4,4.3,4.8,4.7
		c2.7,0.4,5-1.1,6.9-3.2C2737.2,1209.2,2728.3,1215.3,2732.6,1206.2z"/>
	<path class="st10" d="M1943.2,1277.2c-1.4-1.7-3.7-2.7-5.9-3c-4.8-0.7-9.7,1.2-13.9,3.2c-4.4,2.1-9.7,4.7-14.6,3.3
		c-5-1.4-6.2-7.1-10.4-9.7c-1.7-1-3.8-1.6-5.7-1.1c-2.2,0.6-3.3,2.4-3.8,4.5c-0.9,3.3-1.7,6.7-2.6,10.1c-0.7,2.7-1.4,5.4,0.5,7.8
		c3.9,4.8,10.3,2,14.7-0.5c0.5-0.3,6.5-0.2,9.5,0.2c5.8,0.7,11.3-0.1,16.8-2.1c2.6-1,5.1-2.1,7.6-3.4c2.4-1.2,5-2.4,7.2-4
		C1944.4,1281,1944.6,1278.9,1943.2,1277.2z"/>
	<path class="st10" d="M2663.5,374.4c-3.2-3.8-8.8-3.9-13.3-3.1c-2.4,0.4-4.6,1.1-6,3.1c-1.5,2-2.2,4.7-3.1,7.1
		c-3.7,9.9-7.6,21-17.3,26.6c-2.2,1.2-4.5,2.1-7,2.4c-2.6,0.3-5.2,0.3-7.6,1.6c-2.2,1.2-3.7,3.3-5.7,4.7c-2,1.5-4.4,2.4-6.9,2.8
		c-5.3,1-10.8,0.4-16.1,0.1l-18.9-1.1c-3.1-0.2-6.3-0.4-9.4-0.5c-1.4-0.1-1.4,2.2,0,2.2c3.6,0.2,7.3,0.4,10.9,0.7
		c0.2,0.2,0.5,0.4,0.8,0.4c3.9,0.2,7,2.7,9.8,5.2c2.9,2.5,5.7,5.3,9.3,6.9c1.8,0.8,3.8,1.1,5.8,1c2.6-0.1,4.9-0.5,7.2,0.9
		c3.2,2,5.3,5.4,8.7,6.9c4.6,2.1,8.2-1.4,12-3.6c4-2.3,8.2-4,12.3-5.9c4-1.9,7.9-3.9,11.2-6.8c3.2-2.8,5.4-6.2,6.9-10.2
		c2.7-7.5,2.5-16.3,6.7-23.2c1-1.6,2.2-3.1,3.8-4.1c1.8-1.3,4.1-1.9,5.8-3.4C2666.7,382.4,2666.1,377.5,2663.5,374.4z"/>
	<path class="st10" d="M2634.5,354.7c-8.6,1.9-17.2,5.2-23.8,11.2c-5.9,5.4-9.8,13.4-8.2,21.5c0,0.1,0.1,0.2,0.1,0.4
		c-0.6,0.9,1.1,0.4,1.4,1.6c1.2,5,25.1-16.2,33.9-28.9C2638.4,359.6,2638.5,353.8,2634.5,354.7z"/>
</g>
<g id="Major_Regions" class="st0">
	<g class="st11">
		<g>
			<path d="M1353.2,1198.4c-5.1,2.8-8.6,6.6-11.6,11.5c-1.8,2.9-3.7,5.7-5.9,8.4c-1.9,2.3-3.9,4.6-5.5,7.2c-1.9,3-2.7,6.3-3.8,9.6
				c-1.2,3.8-2.6,7.4-4.1,11.1c-3.1,7.7-6.2,15.2-7.9,23.4c-1.7,8.1-3.7,16.2-5.5,24.3c-1.9,8.3-3.3,16.7-4.6,25.1
				c-1.2,8.1-2.2,16.3-3.2,24.4c-1,8.2-2.1,16.4-2.5,24.7c-0.9,15.8,0,31.9,4.1,47.2c2.2,8.1,4.4,16.2,6.1,24.4
				c1.7,8.2,3.2,16.4,5,24.5c1.8,8.2,4.1,16.4,6,24.6c1.9,7.7,4.1,15.2,7.8,22.2c3.6,7,7.6,13.6,10.8,20.8
				c3.1,6.9,6.3,13.8,10.4,20.1c4.4,6.7,9.2,13.2,13.9,19.7c4.7,6.5,9.5,12.9,15.2,18.6c5.4,5.5,11.4,10.3,17.2,15.5
				c4.4,4,9.2,7.6,15.1,9c3.1,0.8,6.2,1,9.4,0.9c1.3,0,1.3-2,0-2c-6.4,0.2-12.3-1.2-17.6-4.9c-2.9-2-5.4-4.4-8-6.7
				c-2.8-2.5-5.7-5-8.5-7.5c-6-5.3-11.3-11.1-16.2-17.5c-4.7-6.2-9.1-12.7-13.6-19c-4.4-6.3-8.5-12.5-11.8-19.5
				c-3.2-6.7-6.1-13.6-9.7-20.1c-3.8-6.8-7.5-13.4-9.8-20.8c-2.4-7.8-4.1-15.8-6.1-23.7c-4.1-15.8-6.4-31.9-10.3-47.7
				c-1.9-7.6-4.3-15-5.6-22.8c-1.3-7.9-1.9-16-1.9-24.1c-0.1-16,2.2-31.9,4.3-47.7c2.1-16.5,4.9-32.7,9.1-48.8
				c2-7.7,2.8-15.6,5.4-23.2c2.5-7.4,6-14.4,8.5-21.8c1.2-3.6,2-7.3,3.8-10.6c1.6-2.9,3.8-5.4,5.8-7.9c2-2.4,3.8-4.9,5.4-7.6
				c1.5-2.4,2.9-4.8,4.8-6.9c2-2.2,4.3-3.8,6.9-5.2C1355.4,1199.6,1354.4,1197.8,1353.2,1198.4L1353.2,1198.4z"/>
		</g>
	</g>
	<g class="st11">
		<g>
			<path d="M1681.9,1256.5c10.9,5.4,21.9,10.8,31.7,18.2c8.2,6.2,15.1,13.8,20.7,22.4c6,9.2,11.4,19.2,15.3,29.5
				c4.3,11.3,6.8,23.2,8.1,35.1c1.4,12.9,1.8,25.9,2,38.9c0.2,13.3,0.1,26.5-0.4,39.8c-0.5,13.3-1.9,26.4-3.5,39.6
				c-0.8,6.5-1.3,13.2-2.3,19.7c-1,6.2-2.6,12.2-4.5,18.2c-3.7,11.8-7.7,23.7-12.3,35.2c-2.2,5.6-4.8,11-7.4,16.5
				c-2.2,4.5-4.3,9.2-7.3,13.3c-1.5,2-3.1,3.9-5.1,5.5c-1,0.8,0.4,2.2,1.4,1.4c4-3.1,6.8-7.6,9.1-12c2.5-4.7,4.9-9.6,7.1-14.5
				c5.2-11.4,9.1-23.4,13.2-35.2c2.1-6.1,4.2-12.3,5.8-18.6c1.6-6.1,2.3-12.3,3-18.6c1.4-13.4,3.4-26.7,4.3-40.1
				c0.9-13.5,1.1-27.2,1-40.7c-0.1-13.5-0.5-27.1-1.5-40.6c-0.9-12.1-2.8-24.2-6.3-35.8c-3.4-11-8.5-21.4-14.3-31.4
				c-5.1-8.6-11.1-16.7-18.4-23.5c-8.9-8.2-19.4-14.2-30.1-19.7c-2.7-1.4-5.5-2.8-8.2-4.1
				C1681.8,1254.2,1680.8,1255.9,1681.9,1256.5L1681.9,1256.5z"/>
		</g>
	</g>
	<g class="st11">
		<g>
			<path d="M809.8,1063.8c2.3-2.4,5.6-3.6,8.8-4.5c3.3-1,6.7-1.7,9.9-3c4.1-1.7,8-3.6,12.2-5.3c4.2-1.7,8.5-3.2,12.8-4.6
				c8.9-2.9,17.9-5.8,26.7-9.1c8-3,15.8-6.5,23.5-10.2c7.8-3.7,16.3-8,25.2-7.6c1.3,0,1.3-2,0-2c-7.9-0.3-15.5,2.9-22.5,6.2
				c-3.5,1.6-7,3.4-10.5,5c-4.2,2-8.5,3.7-12.9,5.4c-17.6,6.9-36,11.4-53.1,19.3c-3.8,1.7-7.7,2.7-11.6,3.8
				c-3.6,1.1-7.3,2.4-9.9,5.1C807.4,1063.4,808.9,1064.8,809.8,1063.8L809.8,1063.8z"/>
		</g>
	</g>
	<g class="st11">
		<g>
			<path d="M1222.3,946.7c4.9,0.3,7.5,5.5,9,9.6c2.2,6,2.5,12.3,3,18.6c0.2,3.3,0.5,6.6,1,9.9c0.5,3,1.3,5.9,1.8,8.8
				c1.1,5.5,1.9,11.4,4.8,16.3c1.5,2.5,3.7,4.4,5.6,6.5c2,2.3,3.6,4.9,5.4,7.4c4.1,5.3,8.6,10.3,12.9,15.4
				c9,10.8,17.8,21.8,27.1,32.4c2.5,2.8,4.9,5.7,7.2,8.7c2.2,2.8,4.5,5.4,6.9,8c4.6,4.9,7.9,11.1,13.2,15.4c1,0.8,2.4-0.6,1.4-1.4
				c-4.7-3.9-7.9-9.3-11.8-13.9c-2.1-2.4-4.4-4.6-6.4-7.1c-2.1-2.6-4-5.3-6.2-7.8c-4.5-5.4-9.3-10.7-13.9-16.1
				c-4.6-5.5-9.2-11.1-13.7-16.7c-4.4-5.4-9-10.6-13.4-16c-1.9-2.4-3.7-4.9-5.4-7.4c-1.7-2.5-4.1-4.5-6-6.8
				c-3.6-4.5-4.5-10.9-5.6-16.3c-0.6-3-1.3-5.9-1.9-8.9c-0.6-3.5-0.9-7-1.2-10.5c-0.5-6.8-0.9-13.8-3.5-20.3
				c-1.9-4.6-5-9.5-10.5-9.9C1221,944.6,1221,946.6,1222.3,946.7L1222.3,946.7z"/>
		</g>
	</g>
	<g class="st11">
		<g>
			<path d="M1844.4,850.8c-9.7-0.8-19.4,0.9-28.7,3.5c-9.6,2.7-19,6.2-28.7,9c-9.8,2.8-19.6,5.3-29.4,8.1
				c-8.4,2.4-16.7,4.9-24.7,8.7c-14.4,6.8-27.2,16.9-37.2,29.2c-5.3,6.4-9.5,13.5-13.5,20.8c-4.4,8-8.3,16.3-10.1,25.3
				c-1,4.9-1.5,9.9-2.1,14.8c-0.6,4.9-1.6,9.8-2.4,14.7c-1.4,8.9-2,18.1-4.8,26.8c-0.7,2.2-1.5,4.3-2.5,6.3c-0.6,1.2,1.2,2.2,1.7,1
				c4-8.1,5.2-17,6.4-25.8c0.6-4.5,1.3-8.9,2.1-13.4c0.9-4.9,1.4-9.8,2.1-14.7c0.6-4.9,1.3-9.8,2.7-14.5c1.3-4.3,3-8.5,5-12.5
				c3.7-7.6,7.8-15.2,12.8-22c9.2-12.9,21.3-23.7,35.2-31.3c7.2-4,14.9-7,22.8-9.3c9.6-2.9,19.3-5.4,28.9-8
				c9.7-2.7,19.2-5.7,28.8-8.8c9.2-3,18.6-5.6,28.2-5.9c2.4-0.1,4.9,0,7.3,0.2C1845.7,852.9,1845.7,850.9,1844.4,850.8L1844.4,850.8
				z"/>
		</g>
	</g>
	<g class="st11">
		<g>
			<path d="M1731.5,665.4c-2.8,0.5-4.8,2.9-6.3,5.1c-1.8,2.6-3.3,5.4-5,8.1c-2.3,3.5-5.8,6.1-8.8,9c-3.4,3.3-6.5,6.7-9.3,10.5
				c-2.8,3.9-5.7,7.8-8.9,11.4c-3.3,3.7-6.7,7.3-10.2,11c-6.5,6.9-13.1,13.5-20.2,19.7c-14.2,12.2-29.4,23.1-43.6,35.3
				c-6.9,6-14,11.9-19.6,19.1c-4.5,5.8-8.5,12.3-9.4,19.7c-0.6,4.3-0.2,8.6-0.7,12.9c-0.5,4.7-1.6,9.2-2,13.9
				c-0.3,3.4,0,6.9-1.3,10.1c-1.5,3.7-3.5,7.2-4.6,11.1c-0.6,2-0.9,4-1.1,6c-0.1,1.3,1.9,1.3,2,0c0.5-4.1,1.7-7.8,3.4-11.5
				c1.4-3.1,3-6.1,3.3-9.5c0.2-1.9,0.2-3.8,0.3-5.7c0.2-2.4,0.6-4.7,1-7.1c0.8-4.5,1.4-9,1.4-13.6c0-3.7,0.2-7.3,1.3-10.8
				c1-3.4,2.8-6.4,4.7-9.4c5-7.8,11.6-14,18.5-20c13.8-12,28.5-22.9,42.6-34.6c7-5.8,13.9-11.9,20.2-18.5c3.3-3.5,6.7-7,10-10.6
				c3.3-3.5,6.6-7.1,9.6-10.9c2.9-3.7,5.4-7.7,8.4-11.3c3.1-3.6,6.7-6.7,10.1-10c1.3-1.3,2.7-2.6,3.8-4c0.9-1.2,1.6-2.4,2.4-3.7
				c1.6-2.7,3.1-5.6,5.3-7.9c0.9-0.9,1.9-1.6,3.1-1.8C1733.3,667.1,1732.7,665.2,1731.5,665.4L1731.5,665.4z"/>
		</g>
	</g>
	<g class="st11">
		<g>
			<path d="M1732,674.4c5.1-0.8,9.7-3.5,14.1-6.1c4.9-2.9,10-5.6,15.1-8c9.3-4.5,18.9-8.4,27.9-13.5c8.4-4.7,16.4-10.3,22.1-18.2
				c6.2-8.5,10.8-18.2,14.3-28.1c1-2.9,2-5.8,3.1-8.6c1.1-2.7,2.2-5.3,3-8c1.8-5.6,2-11.2-0.4-16.7c-0.5-1.2-2.2-0.2-1.7,1
				c4.4,10-1.9,20-5.1,29.4c-3.3,9.8-7.6,19.4-13.5,27.9c-2.6,3.9-5.6,7.3-9.2,10.3c-3.6,3.1-7.6,5.7-11.8,8.1
				c-8.5,5-17.6,8.8-26.5,13c-5.5,2.6-11,5.4-16.4,8.4c-5,2.8-9.9,6.1-15.6,7.1C1730.2,672.6,1730.7,674.6,1732,674.4L1732,674.4z"
				/>
		</g>
	</g>
	<g class="st11">
		<g>
			<path d="M1433.6,1136.9c8.8,0.1,17.5-1.9,26-4.2c4.3-1.2,8.7-2.4,13-3.4c4.4-1,8.8-1.6,13.3-2.4c9.1-1.7,18-4.7,26.7-7.9
				c8-2.9,16.5-3.7,24.5-6.4c4-1.4,7.5-3.5,11.2-5.7c3.7-2.2,6.9-4.5,10.1-7.3c3-2.7,6.5-4.8,9.5-7.4c3-2.7,5.3-6.1,7.2-9.6
				c4.1-7.4,6.7-15.5,10.1-23.2c1.8-4,3.5-7.9,4.6-12c1.1-4,1.7-8.1,2-12.2c0.3-4.4,0.2-8.7,0-13.1c-0.3-4.3-0.7-8.9,0.3-13.1
				c1-4.3,3.2-8.2,4-12.5c0.8-4.4,0.8-8.8,0.8-13.3c0-2.3-0.1-4.6-0.1-6.9c0-1.3-2-1.3-2,0c0,4.5,0.3,8.9,0.1,13.4
				c-0.2,4.6-1.1,8.8-2.8,13.1c-0.8,2-1.6,4-2,6.1c-0.4,1.9-0.5,3.9-0.5,5.9c0,4.3,0.5,8.5,0.5,12.8c0.1,8.4-0.9,16.8-3.9,24.8
				c-1.5,3.9-3.4,7.7-4.9,11.6c-1.6,3.9-3.1,7.9-4.8,11.7c-1.7,3.8-3.6,7.4-6,10.8c-2.4,3.4-5.6,5.8-8.9,8.2
				c-3.2,2.4-6.1,5.3-9.4,7.6c-1.7,1.2-3.5,2.2-5.3,3.3c-1.8,1.1-3.6,2.2-5.4,3.2c-7.4,3.8-15.9,4.5-23.8,6.6
				c-4.2,1.2-8.3,2.8-12.4,4.3c-4.4,1.5-8.7,2.9-13.2,4c-4.4,1.1-8.9,1.7-13.3,2.5c-4.3,0.7-8.5,1.8-12.7,2.9
				c-8.5,2.2-16.9,4.8-25.6,5.7c-2.2,0.2-4.3,0.3-6.5,0.3C1432.3,1134.9,1432.3,1136.9,1433.6,1136.9L1433.6,1136.9z"/>
		</g>
	</g>
	<g class="st11">
		<g>
			<path d="M1595.6,1021.9c15.8,0.2,32.3,1.8,46.5,9.3c1.1,0.6,2.2-1.1,1-1.7c-14.5-7.6-31.3-9.3-47.5-9.5
				C1594.3,1019.9,1594.3,1021.9,1595.6,1021.9L1595.6,1021.9z"/>
		</g>
	</g>
	<g class="st11">
		<g>
			<path d="M778.5,1463.3c3.3,0.4,6.2-0.4,9.1-2c3.9-2,7.7-3.4,11.9-4.5c8.6-2.2,16.5-5.2,24.6-8.9c16.7-7.7,33-15.9,50.1-22.6
				c17.1-6.7,34.6-12.5,52.4-17.1c18.4-4.8,36.7-10.6,55.8-10.7c19.2-0.2,38.5,0.1,57.7,0.1c9.6,0,19.1,0.2,28.7-0.1
				c9.1-0.2,18.2-0.6,27,2.4c8.6,2.9,17.8,3.6,26.6,5.6c4.5,1,9.2,0.6,13.7,1.6c4.2,0.9,8.1,2.9,12.1,4.3c4.3,1.4,8.6,2.3,12.8,4
				c4.1,1.6,8.1,3.5,12,5.4c3.8,1.8,7.7,3.3,11.3,5.5c3.4,2.1,6.6,4.8,10.2,6.6c3.5,1.7,7.5,2.1,11.1,3.7c3.9,1.8,7.2,4.6,10.8,6.8
				c7.1,4.3,14.5,8.5,22.4,10.9c8,2.4,16.4,3.6,24.7,4.3c7.2,0.6,14.6,0.6,21.4-2.1c3-1.2,5.8-2.9,8.2-5.1c0.9-0.9-0.5-2.3-1.4-1.4
				c-5.8,5.4-13.7,7-21.4,7c-8.3,0-16.8-1.1-24.9-3c-4.3-1-8.6-2.2-12.7-4c-4-1.7-7.6-4-11.4-6.1c-3.7-2-7.2-4.4-10.7-6.7
				c-3.4-2.2-6.7-3.4-10.6-4.5c-4.2-1.2-7.5-3.3-11.1-5.7c-3.4-2.3-6.8-4.2-10.5-5.9c-7.5-3.4-14.8-7.2-22.6-9.6
				c-4.2-1.3-8.3-2.4-12.4-4c-4.1-1.6-8-2.7-12.4-3c-2.2-0.2-4.4-0.2-6.5-0.6c-2.5-0.4-5-1.2-7.6-1.6c-4.4-0.8-9-1.3-13.4-2.2
				c-4.3-0.9-8.4-2.6-12.7-3.5c-4-0.8-8.2-1.1-12.3-1.2c-9.1-0.1-18.2,0.3-27.3,0.3c-19.1,0-38.2,0.2-57.3,0
				c-9.1-0.1-18.1-0.4-27.1,0.9c-9.3,1.3-18.4,4-27.4,6.3c-17.6,4.5-35.1,9.3-52.3,15.5c-16.9,6.1-33.5,13.1-49.7,20.9
				c-8.2,4-16.5,8.1-25,11.5c-4.1,1.6-8.2,2.9-12.4,3.9c-3.8,0.9-7.6,1.9-11.1,3.7c-3.6,1.8-6.5,3.6-10.7,3.1
				C777.2,1461.1,777.3,1463.1,778.5,1463.3L778.5,1463.3z"/>
		</g>
	</g>
	<text transform="matrix(0.8288 0 0 1 1780.3724 1648.7377)" class="st12 st13 st14">Maroth</text>
	<text transform="matrix(0.8288 0 0 1 1463.5764 1414.5004)" class="st12 st13 st14">Stol</text>
	<text transform="matrix(0.8288 0 0 1 1015.8535 1656.3264)" class="st12 st13 st14">Dullstar</text>
	<text transform="matrix(0.8288 0 0 1 2366.2261 1459.8933)" class="st12 st13 st14">Leed</text>
	<text transform="matrix(0.8288 0 0 1 1858.1025 1005.817)" class="st12 st13 st14">Thrind</text>
	<text transform="matrix(0.8288 0 0 1 1888.9875 587.0944)" class="st12 st13 st14">Varno</text>
	<text transform="matrix(0.8288 0 0 1 1442.5946 639.3083)" class="st12 st13 st14">Varnought</text>
	<text transform="matrix(0.8288 0 0 1 788.9783 1243.1084)" class="st12 st13 st14">Balad-Balar</text>
	<text transform="matrix(0.8288 0 0 1 774.6438 746.174)" class="st12 st13 st14">Greenstar</text>
</g>
<g id="Maroth" class="st0">
	<g class="st11">
		<g>
			<path class="st15" d="M1825.7,1372.5c18.4,0.2,36.8,1.1,55.1,3.4c4.5,0.6,9,1.1,13.5,1.4c4.6,0.3,9.2,0.5,13.8,1.3
				c8.5,1.5,17.2,2.6,25.5,5.1c3.9,1.2,7.7,2.1,11.8,2.5c4.2,0.4,8.3,0.2,12.4-0.1c2-0.2,4-0.3,5.9-0.9c2-0.6,3.8-1.6,5.6-2.4
				c4-1.8,8.4-3.1,12.6-4.3c4.3-1.2,8.8-2.3,13.2-2.8c2.1-0.2,4.1,0.2,6.1,0.8c1.9,0.6,3.9,1.2,5.8,1.7c1.9,0.6,3.8,1.2,5.6,2.1
				c1.9,1,3.6,2.1,5.4,3.1c3.7,2,7.7,3.4,11.5,5.1c3.9,1.7,7.9,3,12,4.1c4.3,1.1,8.6,2.2,13,3.2c8.5,1.9,17.1,3.3,25.8,3.7
				c2.2,0.1,4.5,0.2,6.8,0.2c1.3,0,1.3-2,0-2c-9,0-17.9-1-26.7-2.7c-4.3-0.8-8.6-1.9-12.9-3c-4.2-1.1-8.6-1.9-12.7-3.5
				c-2.1-0.8-4.1-1.7-6.1-2.5c-2-0.9-4-1.6-6-2.5c-3.7-1.7-7-4.1-10.7-5.8c-3.6-1.5-7.5-2.5-11.2-3.6c-1.9-0.5-3.8-0.8-5.7-0.6
				c-2.1,0.2-4.2,0.7-6.2,1.1c-4.3,0.8-8.6,2.1-12.7,3.4c-2.1,0.7-4.2,1.4-6.3,2.2c-2,0.8-3.8,1.8-5.8,2.6c-2,0.7-4.2,0.9-6.3,1.1
				c-2.1,0.2-4.1,0.4-6.2,0.4c-4.2,0.1-8.3-0.3-12.4-1.3c-4.2-1-8.2-2.4-12.4-3.3c-4.2-0.9-8.5-1.6-12.7-2.3
				c-4.4-0.7-8.7-1.5-13.1-1.9c-4.5-0.4-9-0.6-13.5-1.1c-9.1-1-18.2-2.2-27.3-2.9c-9.1-0.7-18.2-1-27.4-1.2c-2.3,0-4.6-0.1-7-0.1
				C1824.4,1370.5,1824.4,1372.5,1825.7,1372.5L1825.7,1372.5z"/>
		</g>
	</g>
	<g class="st11">
		<g>
			<path class="st15" d="M1802.8,1468.3c-0.6,1.9,1.2,3.2,2.7,3.8c2.4,1.1,5.1,1.6,7.6,2c2.3,0.4,4.6,0.7,6.9,1
				c1.1,0.1,2.4,0.4,3.6,0.5c2.5,0.3,5,0.1,7.4,0.2c5.5,0.1,10.9,0.5,16.4,0.8c5.6,0.3,11.1,0.4,16.7,0.5c11,0.2,22,0.5,33,0.2
				c5.4-0.2,10.8-0.6,16.1-1.3c5.3-0.7,10.5-2,15.8-2.4c5.2-0.4,10.4-0.1,15.5,0.7c4.9,0.8,10,1.9,14.6,4c4.3,2.1,8.3,4.9,11.7,8.4
				c3.3,3.5,5.8,7.4,8.3,11.4c4.3,7.1,10.2,13.2,17,17.9c6.9,4.8,14.7,8.3,22.8,10.4c2,0.5,4.1,1.1,6.2,1.4c2.4,0.3,4.9,0.1,7.1,1.3
				c2,1.1,3.8,1.9,6.1,2c2.4,0.1,4.7,0.4,7.1,0.7c2.6,0.3,5.3,0.2,7.9,0.2c1.3,0,1.3-2,0-2c-2.6,0-5.3,0.1-7.9-0.2
				c-2.4-0.3-4.7-0.6-7.1-0.7c-2.4-0.1-4-1.4-6.1-2.2c-2.3-1-4.7-0.7-7-1.1c-8.1-1.3-16.2-4.4-23.3-8.5c-7.1-4.1-13.5-9.5-18.3-16.2
				c-2.6-3.6-4.6-7.6-7.3-11.2c-2.7-3.6-5.8-6.8-9.5-9.5c-7.9-5.8-17.4-8-27-8.9c-5-0.5-10-0.4-15,0.3c-5.3,0.7-10.5,1.9-15.8,2.4
				c-10.7,1.1-21.5,0.9-32.2,0.8c-10.8-0.1-21.6-0.3-32.4-0.9c-5.4-0.3-10.7-0.7-16.1-0.6c-3.1,0-6-0.4-9-0.8
				c-2.4-0.3-4.8-0.6-7.2-1.1c-2.2-0.4-4.9-0.8-6.8-2.2c-0.5-0.4-0.8-0.6-0.7-1C1805.1,1467.6,1803.2,1467,1802.8,1468.3
				L1802.8,1468.3z"/>
		</g>
	</g>
	<g class="st11">
		<g>
			<path class="st15" d="M2008.7,1518.5c1-0.9,2.5-1.2,3.8-1.5c1.5-0.3,2.9-0.5,4.4-0.9c1.9-0.5,3.7-1.3,5.5-2
				c2.1-0.8,4.2-1.7,6.3-2.4c4.2-1.5,8.5-2.6,12.8-4c2.1-0.7,4.2-1.4,6.3-2.3c2.1-0.9,4-1.9,6.1-2.7c2.3-0.9,4.6-1,7-1.6
				c1.3-0.3,2.5-0.6,3.8-0.5c1.1,0.1,2.2,0.5,3.3,0.8c1.3,0.3,1.8-1.7,0.5-1.9c-2-0.4-3.8-1.1-5.9-0.8c-1.1,0.2-2.1,0.5-3.1,0.7
				c-1.1,0.2-2.2,0.3-3.3,0.5c-4.5,1.1-8.7,3.6-13.1,5.1c-4.5,1.6-9.2,2.7-13.7,4.2c-4.2,1.5-8.3,3.5-12.6,4.7
				c-3.1,0.9-7.1,0.7-9.6,3C2006.4,1518,2007.8,1519.4,2008.7,1518.5L2008.7,1518.5z"/>
		</g>
	</g>
	<g class="st11">
		<g>
			<path class="st15" d="M1730.7,1603.1c0.1,2.7,1.4,5.1,2.5,7.4c1.4,3,2.9,6,4.1,9.1c2.4,5.8,3.8,11.8,5.6,17.7
				c1.7,5.6,3.7,11.2,7,16.1c3.2,4.8,7.2,9.3,11.5,13.2c4.4,4,9.4,6.7,14.8,9.1c2.9,1.3,5.8,2.5,8.6,4c2.8,1.4,5.4,3.2,8.2,4.7
				c5.5,3.1,11.2,5.7,16.6,9.1c4.6,2.9,8.3,6.6,10.7,11.5c1.4,2.9,2.3,6,3.5,9c1.4,3.4,2.9,6.7,4.3,10.1c1.3,3.3,2.2,6.7,3.6,10
				c1,2.4,1,5.3,2.8,7.3c0.9,1,2.3-0.5,1.4-1.4c-0.8-0.9-1-2-1.3-3.1c-0.3-1.3-0.7-2.5-1.2-3.7c-1.2-2.9-2-6-3.1-9
				c-1.1-2.8-2.3-5.6-3.5-8.4c-1.2-2.9-2.3-5.9-3.4-8.8c-1.8-4.6-4.4-8.7-8.1-11.9c-4.5-3.8-10-6.5-15.2-9.2
				c-2.8-1.4-5.6-2.9-8.3-4.5c-2.6-1.6-5.3-3.1-8.1-4.5c-5.5-2.6-11.3-4.7-16.3-8.2c-4.8-3.3-8.9-7.7-12.5-12.2
				c-3.8-4.7-6.5-9.7-8.5-15.3c-2.2-6.3-3.4-12.9-5.8-19.1c-1.3-3.4-2.8-6.7-4.3-9.9c-1.3-2.8-3.3-6-3.5-9.2
				C1732.7,1601.8,1730.7,1601.8,1730.7,1603.1L1730.7,1603.1z"/>
		</g>
	</g>
	<g class="st11">
		<g>
			<path class="st15" d="M1741.7,1650.1c0.6,5,3.4,9.3,3.8,14.4c0.1,1.3,0.1,2.5,0.1,3.8c0,1.2,0.2,2.5,0.1,3.8
				c-0.1,2.2-1.9,4.3-3,6.1c-1.4,2.3-3,4.5-4.1,7c-1,2.3-1.7,4.6-2.1,7.1c-1,5.1-1.1,10.2-1.1,15.4c0,1.6,0,3.1,0,4.7
				c0,1.4,0.1,2.8,0,4.2c-0.1,1-0.7,1.7-1.3,2.4c-0.8,1.1-1.5,2.3-2.3,3.3c-0.8,1,0.6,2.4,1.4,1.4c0.8-0.9,1.3-1.9,2-2.9
				c0.5-0.8,1.3-1.5,1.7-2.4c0.9-1.9,0.5-4.4,0.5-6.4c0-5.4-0.1-10.9,0.5-16.2c0.3-2.8,0.9-5.5,1.9-8.2c0.9-2.6,2.4-4.9,3.9-7.3
				c0.6-1,1.2-2.1,1.9-3.1c0.6-1,1.3-1.9,1.7-3c0.8-2.1,0.3-4.8,0.3-7c-0.1-2.9-0.3-5.7-1.2-8.5c-0.9-2.8-2.3-5.6-2.7-8.6
				C1743.5,1648.8,1741.5,1648.8,1741.7,1650.1L1741.7,1650.1z"/>
		</g>
	</g>
	<g class="st11">
		<g>
			<path class="st15" d="M1742.8,1633.6c1.7,1.4,1.6,3.7,1.4,5.7c-0.2,2.5-0.1,5.1-0.4,7.6c-0.3,2.9-1.1,5.8-1.4,8.7
				c-0.2,1.4-0.6,2.9-0.7,4.3c-0.1,1.4,0,2.8,0,4.3c0,1.3,2,1.3,2,0c0-1.5-0.2-3,0-4.6c0.2-1.6,0.6-3.1,0.8-4.7
				c0.4-3.1,1.2-6.2,1.5-9.4c0.2-2.5,0.3-5.1,0.3-7.6c0-2.1-0.3-4.4-2.1-5.8C1743.2,1631.4,1741.8,1632.8,1742.8,1633.6
				L1742.8,1633.6z"/>
		</g>
	</g>
	<g class="st11">
		<g>
			<path d="M1767.7,1374.8c4.5,0.4,9.3-0.8,13.7-1.6c2.5-0.4,4.8-1.2,7.3-1.7c2.5-0.5,5-0.8,7.5-1.2c5-0.7,9.9-2.2,14.8-3.4
				c2.5-0.6,5.1-1.3,7.6-1.7c2.4-0.4,4.8-0.5,7.2-0.6c5.2-0.1,10.5-0.3,15.7-0.1c2.6,0.1,4.9,1.1,7.4,1.6c2.4,0.5,4.9,0.3,7.2,0.9
				c1.1,0.3,2,0.9,3.1,1.1c1.2,0.2,2.5,0.3,3.7,0.4c2.5,0.2,4.9,0.6,7.4,0.7c5.3,0.2,10.5,0.1,15.8,0c2.6,0,5.2-0.2,7.8,0.3
				c2.4,0.4,4.6,0.6,7,0.5c2.6-0.1,5.2-0.3,7.8,0.1c1.1,0.2,2.1,0.5,3.2,0.5c1.3,0.1,2.6,0,3.9,0.1c5.1,0.5,10,1.4,14.9,2.9
				c4.6,1.5,9.1,3.4,13.7,4.8c4.9,1.5,9.7,1.7,14.8,1.6c2.5,0,5,0.2,7.4-0.1c2.1-0.3,3.8-1.3,5.7-2.2c3-1.4,6.5-2.6,8.2-5.6
				c1.1-1.9,1.3-4.4,1.8-6.5c0.6-2.4,1-4.9,2-7.1c0.9-2,2.1-3.8,2.8-5.9c0.7-2.2,1.5-4.3,2.3-6.5c1.6-4.5,4.4-8.3,6.6-12.4
				c1.2-2.2,2.2-4.5,3.3-6.7c1.1-2.2,2.4-4.2,3.7-6.2c2.7-4.1,4.8-8.5,7.4-12.7c1.3-2.1,2.6-4.1,3.8-6.2c0.6-1.1-1.1-2.1-1.7-1
				c-2.4,4.2-5.2,8.2-7.4,12.5c-2.2,4.3-5.2,8.1-7.4,12.4c-1.1,2.1-2,4.4-3.2,6.5c-1.1,2.1-2.4,4-3.6,6c-2.3,3.9-4.2,8.2-5.5,12.5
				c-0.7,2.2-1.7,4-2.6,6c-1,2.1-1.5,4.4-2,6.6c-0.3,1.1-0.6,2.3-0.8,3.4c-0.3,1.2-0.4,2.4-0.8,3.5c-0.7,1.7-2.2,2.8-3.7,3.6
				c-1.6,0.9-3.2,1.4-4.8,2.2c-0.9,0.5-1.8,1-2.8,1.3c-1.2,0.4-2.5,0.4-3.8,0.4c-5,0-10.1,0.3-15-0.6c-4.8-0.9-9.3-2.8-13.9-4.5
				c-4.5-1.6-9-3-13.8-3.6c-2.4-0.3-4.9-0.8-7.4-0.8c-1.2,0-2.4,0-3.6-0.2c-1.2-0.2-2.4-0.4-3.6-0.5c-2.5-0.1-4.9,0.1-7.4,0.1
				c-2.4,0-4.7-0.6-7.1-0.8c-2.6-0.2-5.2,0-7.8,0c-2.6,0-5.2,0-7.9,0c-2.5,0-5.1,0-7.6-0.1c-2.5-0.1-4.9-0.6-7.4-0.8
				c-2.4-0.2-4.4-1.3-6.8-1.6c-2.5-0.3-4.9-0.4-7.4-1.2c-2.4-0.7-4.7-1.1-7.2-1.2c-2.6-0.1-5.2,0-7.8,0.1c-4.7,0.1-9.4-0.1-14.1,0.7
				c-5,0.8-10,2.2-14.9,3.5c-2.4,0.6-4.8,1.2-7.3,1.6c-2.4,0.4-4.8,0.6-7.2,1.1c-2.4,0.5-4.8,1.2-7.3,1.7c-2.3,0.4-4.6,0.8-6.9,1.1
				c-2.3,0.4-4.7,0.7-7,0.5C1766.5,1372.7,1766.5,1374.7,1767.7,1374.8L1767.7,1374.8z"/>
		</g>
	</g>
	<g class="st11">
		<g>
			<path d="M1980.4,1383.2c0.1,1.5-0.8,2.9-1.5,4.1c-0.8,1.3-1.6,2.6-2.2,4c-0.9,2-1.7,4-2.7,5.8c-0.9,1.7-1.9,3.3-2.9,4.9
				c-2,3.4-4,6.9-5.4,10.6c-0.7,1.9-1,3.9-1.6,5.8c-0.6,1.9-1.4,3.8-1.7,5.8c-0.3,2.2-0.4,4.3-0.7,6.5c-0.3,2-0.7,4.1-1.8,5.8
				c-2.1,3-5.9,5.3-5.1,9.5c0.3,1.7,1.2,3.2,2.1,4.6c1.1,1.7,2.2,3.4,3.4,5.1c1.1,1.7,2.4,3.3,3.2,5.2c0.7,1.8,1.6,3.3,2.8,4.8
				c2.5,3.3,5,6.7,9.1,8c4.3,1.4,8.9,0.4,13.3,0.2c-0.2-0.1-0.5-0.2-0.7-0.3c1,1.1,0,3-0.4,4.1c-0.6,1.4-1.3,2.7-1.5,4.3
				c-0.3,2.2-0.1,4.4-0.1,6.6c-0.1,1.7,0.1,3.5,1,5c0.8,1.4,2.3,2.2,3.2,3.5c1.2,1.6,1.5,3.7,2,5.6c0.7,2.6,1.2,6.6,3.9,7.9
				c1.4,0.7,3.2,0.6,4.7,0.5c1.7-0.1,3.4-0.1,5.1-0.3c3.9-0.5,7.1-3.1,10.4-5c2-1.1,4.1-2.2,6.3-2.9c2.1-0.7,4.3-0.8,6.5-1.1
				c2.3-0.4,4.8-0.1,7.1-0.2c2.3-0.1,4.7-0.3,7-0.6c2.5-0.3,5.1-0.5,7.6-1.1c1-0.2,2-0.7,3-1c1.2-0.4,2.5-0.4,3.8-0.6
				c4.5-0.8,8.5-4.2,13.2-3.7c1.3,0.1,1.3-1.9,0-2c-3.8-0.4-7.3,1.7-10.7,3c-1.9,0.7-3.7,0.8-5.7,1.2c-1.9,0.3-3.6,1.3-5.6,1.6
				c-4.5,0.7-9,1.1-13.5,1.3c-2,0.1-4.1-0.1-6.1,0.2c-1.1,0.1-2.1,0.4-3.3,0.5c-1,0.1-1.9,0.2-2.9,0.4c-4,1.1-7.7,3.3-11.2,5.5
				c-1.5,0.9-3,1.9-4.7,2.4c-1.6,0.5-3.3,0.3-5,0.5c-1.5,0.1-3.2,0.4-4.7,0c-1.5-0.4-2-2.1-2.4-3.5c-1-3.1-1.3-6.7-3.1-9.4
				c-0.9-1.3-2.2-2.1-3.1-3.3c-1-1.5-0.9-3.4-0.8-5.1c0.1-2.1-0.3-4.3,0.2-6.3c0.3-1.3,1.1-2.5,1.6-3.8c0.5-1.2,0.9-2.6,0.5-3.9
				c-0.1-0.5-0.5-1.1-0.9-1.5c-0.7-0.5-1.8-0.2-2.6-0.2c-4,0.3-8.4,1.1-12.2-0.8c-1.8-0.9-3.1-2.3-4.4-3.8c-1.3-1.6-2.7-3.1-3.8-4.9
				c-1-1.6-1.4-3.5-2.5-5.1c-1.2-1.7-2.4-3.5-3.6-5.3c-1.1-1.6-2.3-3.2-3.2-5c-1-2.1-0.5-3.9,1-5.7c1.2-1.5,2.8-2.8,3.8-4.5
				c1-1.7,1.3-3.8,1.7-5.7c0.4-2.1,0.4-4.2,0.7-6.3c0.3-2.2,1.1-4.1,1.8-6.2c0.6-1.9,0.9-3.9,1.6-5.7c0.7-2,1.7-3.9,2.7-5.8
				c1.9-3.5,4.3-6.8,6-10.5c0.9-1.9,1.6-3.9,2.6-5.7c0.7-1.3,1.6-2.6,2.3-3.9c0.6-1.2,1.2-2.5,1.1-3.9
				C1982.3,1381.9,1980.3,1381.9,1980.4,1383.2L1980.4,1383.2z"/>
		</g>
	</g>
	<g class="st11">
		<g>
			<path d="M1737,1596.3c2.4,0.5,3.7,3.3,4.8,5.2c1.5,2.7,3,5.4,4.3,8.2c2.6,5.4,5,11.1,8.3,16.1c1.6,2.4,3.4,4.7,5.5,6.6
				c2.3,2,5.1,2.9,7.6,4.5c2.7,1.7,4.7,4.2,6.9,6.4c2.4,2.4,4.9,4.7,7.2,7.1c4.6,4.7,9.3,9.8,12.5,15.6c1.5,2.8,2.8,5.8,4.8,8.3
				c1.9,2.5,4.2,4.7,5.9,7.3c1.5,2.2,3.4,3.9,5.7,5.3c2.8,1.7,5,3.8,7.4,6.1c2.4,2.3,4.8,4.6,7,7.1c2.2,2.6,3.8,5.5,5.6,8.3
				c2,3.2,3.5,6.8,5.2,10.3c0.8,1.6,1.6,3.2,2.4,4.9c0.9,1.7,0.8,3.3,0.8,5.2c0,1.3,0.1,2.6,0.7,3.8c0.8,1.6,2,2.8,2.4,4.6
				c0.3,1.4,0.7,2.7,1.9,3.6c1.2,0.9,2.7,1.1,4.1,1.7c1.2,0.6,2.2-1.2,1-1.7c-1.1-0.6-2.4-0.8-3.5-1.4c-1.6-0.9-1.4-2.6-2-4.1
				c-0.5-1.2-1.4-2.2-2-3.3c-0.8-1.4-0.6-2.8-0.6-4.4c0-1.4-0.1-2.7-0.6-4c-0.6-1.5-1.4-2.8-2.1-4.2c-1.5-3.1-3.1-6.2-4.6-9.4
				c-0.7-1.4-1.5-2.7-2.3-4c-0.9-1.5-1.8-3.1-2.9-4.6c-1.9-2.6-4.2-5-6.5-7.3c-2.3-2.3-4.5-4.6-7-6.6c-2.3-1.8-5-3-7-5.2
				c-0.9-1-1.5-2.1-2.3-3.2c-1-1.3-2.1-2.5-3.1-3.7c-2.2-2.5-3.8-5.1-5.3-8c-3.1-6-7.2-11.2-11.8-16.1c-2.3-2.5-4.8-4.8-7.2-7.2
				c-2.2-2.2-4.3-4.5-6.6-6.6c-2.3-2.1-4.9-3.3-7.6-4.8c-2.7-1.5-4.9-3.8-6.7-6.4c-1.9-2.7-3.5-5.7-4.9-8.6
				c-1.6-3.2-3.1-6.3-4.6-9.5c-1.4-3-3.1-5.9-4.8-8.8c-1.2-2.1-2.8-4.5-5.4-5.1C1736.2,1594.1,1735.7,1596,1737,1596.3L1737,1596.3z
				"/>
		</g>
	</g>
	<g class="st11">
		<g>
			<path d="M2011.1,1652.2c-1.4,0-2.4-1-3.4-1.8c-1.1-0.9-2.2-1.6-3.3-2.3c-2.4-1.5-4.9-3-7.3-4.6c-2.5-1.7-4.9-3.6-7.7-4.7
				c-1.2-0.5-2.5-0.9-3.8-1.4c-1.5-0.6-2.9-1.4-4.3-2.1c-2.4-1.3-5-2.6-7.6-3.2c-2.6-0.5-5.3-0.5-7.9-0.4c-2.8,0.1-5.6,0.2-8.4,0.6
				c-3.1,0.4-6.1,1-9.2,1.7c-5.2,1-10.9,3-15,6.6c-4.1,3.6-6.8,8.6-9.7,13.1c-1.6,2.6-3.2,5.1-4.8,7.7c-0.8,1.3-1.5,2.5-2.4,3.7
				c-0.9,1.2-1.9,2.3-2.6,3.6c-0.5,0.9-0.6,1.8-0.7,2.8c-0.2,1.5-0.5,2.9-0.6,4.4c-0.2,3.1-0.3,6.2,0,9.3c0.3,3.2,0.8,6.4,1.4,9.6
				c0.3,1.8,0.1,3.1-1,4.6c-0.8,1.1-1.3,2.2-1.4,3.7c-0.1,1.3,0.1,2.5,0,3.8c-0.1,1.1-0.2,2.2-0.2,3.3c-0.1,1.9-0.1,4.2,1.3,5.7
				c0.9,0.9,2.3-0.5,1.4-1.4c-1.1-1.2-0.8-3.7-0.7-5.2c0.1-2,0.1-3.9,0.1-5.9c0-1.3,0.6-2.1,1.3-3.2c0.7-1,1.1-2.1,1.2-3.4
				c0.1-1.3-0.2-2.5-0.5-3.8c-0.3-1.5-0.5-3-0.7-4.5c-0.3-2.9-0.5-5.8-0.5-8.8c0-2.9,0.4-5.6,0.8-8.5c0.2-1.2,0.7-1.9,1.4-2.9
				c0.8-1.1,1.7-2.3,2.5-3.5c1.7-2.5,3.2-5.2,4.8-7.7c2.9-4.6,5.6-9.5,9.2-13.5c3.7-4,8.9-6,14.1-7.3c5.6-1.4,11.4-2.2,17.1-2.5
				c2.7-0.1,5.4-0.3,8.1,0.1c2.6,0.4,5,1.5,7.4,2.7c1.5,0.8,2.9,1.6,4.5,2.3c1.3,0.6,2.7,1,4,1.5c3.1,1.2,5.8,3.3,8.5,5.1
				c2.6,1.8,5.4,3.3,8,5.1c2.1,1.4,3.9,3.7,6.6,3.7C2012.4,1654.2,2012.4,1652.2,2011.1,1652.2L2011.1,1652.2z"/>
		</g>
	</g>
	<text transform="matrix(0.8288 0 0 1 1943.6647 1676.6956)" class="st16 st13 st17">LEIFREED</text>
	<text transform="matrix(0.8288 0 0 1 2012.7054 1442.7953)" class="st16 st13 st17">BRIST</text>
	<text transform="matrix(0.8288 0 0 1 1839.9725 1547.2646)" class="st16 st13 st17">PROCKLAND</text>
	<text transform="matrix(0.8288 0 0 1 1750.4133 1715.8414)" class="st16 st13 st17">RICHMAR</text>
	<text transform="matrix(0.8288 0 0 1 1853.0437 1321.2029)" class="st16 st13 st17">NORSTILL</text>
	<text transform="matrix(0.8288 0 0 1 2085.3662 1800.0479)" class="st16 st13 st17">LEAR</text>
	<text transform="matrix(0.8288 0 0 1 1743.2587 1841.5933)" class="st16 st13 st17">DARR</text>
	<text transform="matrix(0.8288 0 0 1 1547.5649 1823.0439)" class="st16 st13 st17">WEEL</text>
	<text transform="matrix(0.8288 0 0 1 2061.9863 1240.3893)" class="st16 st13 st17">HAROUGH</text>
	<text transform="matrix(0.8288 0 0 1 2085.218 1261.9148)" class="st16 st13 st17">and</text>
	<text transform="matrix(0.8288 0 0 1 2097.9209 1286.0731)" class="st16 st13 st17">BOLST</text>
</g>
</svg>
