<?xml version="1.0" standalone="no"?>
<!DOCTYPE svg PUBLIC "-//W3C//DTD SVG 20010904//EN"
 "http://www.w3.org/TR/2001/REC-SVG-20010904/DTD/svg10.dtd">
<svg version="1.0" xmlns="http://www.w3.org/2000/svg"
 width="700.000000pt" height="700.000000pt" viewBox="0 0 700.000000 700.000000"
 preserveAspectRatio="xMidYMid meet">
<metadata>
Created by potrace 1.14, written by Peter Selinger 2001-2017
</metadata>
<g transform="translate(0.000000,700.000000) scale(0.100000,-0.100000)"
fill="#000000" stroke="none">
<path d="M3427 6994 c-1 -1 -58 -4 -127 -8 -124 -5 -183 -10 -270 -22 -89 -11
-100 -13 -162 -24 -35 -7 -74 -14 -88 -16 -128 -23 -509 -139 -602 -184 -23
-11 -45 -20 -49 -20 -17 0 -271 -128 -384 -193 -103 -60 -264 -164 -315 -204
-212 -165 -282 -226 -411 -356 -276 -277 -500 -593 -670 -944 -32 -68 -59
-125 -59 -127 0 -3 -11 -29 -24 -58 -60 -133 -155 -432 -181 -569 -3 -13 -11
-58 -20 -99 -47 -238 -60 -384 -60 -675 1 -304 28 -550 89 -800 45 -183 128
-432 190 -570 8 -16 24 -55 37 -85 36 -86 126 -256 190 -359 33 -51 59 -95 59
-97 0 -8 175 -252 218 -304 132 -159 396 -421 515 -511 121 -91 255 -186 284
-202 12 -7 47 -29 77 -50 68 -46 312 -171 421 -216 44 -17 89 -36 100 -41 122
-57 512 -172 670 -199 297 -51 377 -57 670 -54 154 1 296 4 315 7 149 21 318
47 333 52 10 3 32 7 50 10 96 12 615 184 652 216 5 4 15 8 23 8 19 0 332 158
409 206 81 51 307 205 313 214 3 3 37 30 75 59 340 258 687 686 900 1109 184
366 308 761 361 1152 12 88 12 90 20 210 13 183 7 522 -11 632 -2 13 -11 73
-19 133 -9 61 -18 119 -20 130 -28 134 -41 188 -71 295 -193 685 -595 1302
-1137 1746 -53 43 -109 89 -125 102 -43 35 -301 206 -358 237 -247 136 -423
215 -640 287 -138 46 -343 101 -424 114 -18 3 -43 8 -55 10 -75 14 -139 24
-196 30 -36 3 -76 8 -90 10 -36 6 -397 22 -403 18z m373 -357 c14 -3 53 -8 87
-11 361 -34 833 -193 1188 -401 33 -19 67 -38 75 -42 8 -3 17 -9 20 -12 3 -3
46 -33 95 -65 306 -201 625 -520 833 -831 37 -55 70 -101 75 -103 4 -2 7 -8 7
-13 0 -5 18 -38 40 -74 194 -317 346 -758 404 -1175 22 -162 29 -540 12 -690
-4 -41 -9 -86 -11 -100 -1 -14 -5 -45 -9 -70 -4 -25 -10 -58 -12 -75 -12 -78
-78 -353 -87 -361 -3 -3 -17 17 -32 43 -16 26 -63 100 -106 163 -269 397 -628
743 -1039 998 -97 61 -400 218 -465 242 -11 4 -47 19 -80 33 -139 58 -470 156
-615 181 -19 3 -45 8 -56 10 -12 2 -39 7 -60 10 -22 3 -56 9 -77 12 -229 36
-673 40 -917 8 -587 -76 -1131 -288 -1597 -622 -67 -48 -132 -96 -145 -107
-13 -11 -51 -42 -83 -70 -258 -215 -516 -513 -695 -803 -40 -63 -67 -98 -71
-90 -6 11 -36 125 -44 167 -2 9 -8 34 -13 56 -6 22 -13 56 -16 75 -23 137 -36
229 -43 301 -15 152 -7 610 12 679 2 8 6 38 10 65 3 28 15 95 26 150 12 55 22
108 24 117 8 37 49 177 75 258 117 355 300 689 544 990 95 119 279 309 376
391 36 30 74 63 86 74 35 34 208 157 321 228 214 135 528 277 748 340 83 24
173 49 185 52 3 0 23 5 45 10 22 5 42 9 45 10 3 1 25 5 50 9 25 5 54 10 64 12
43 8 175 25 236 30 35 3 66 7 69 9 5 6 491 -2 521 -8z"/>
</g>
</svg>
